<mxfile host="app.diagrams.net" modified="2024-05-23T07:14:56.214Z" agent="Mozilla/5.0 (Windows NT 10.0; Win64; x64) AppleWebKit/537.36 (KHTML, like Gecko) Chrome/117.0.0.0 Safari/537.36" etag="Q3CdXIiPn8GfpYSsrNTW" version="24.0.7" type="github">
  <diagram name="第 1 页" id="Tb-03283sjtpAyqhVetA">
    <mxGraphModel dx="1834" dy="1158" grid="0" gridSize="10" guides="1" tooltips="1" connect="1" arrows="1" fold="1" page="0" pageScale="1" pageWidth="827" pageHeight="1169" math="0" shadow="0">
      <root>
        <mxCell id="0" />
        <mxCell id="1" parent="0" />
        <mxCell id="EbQze-ob3yoMqO5apH35-1" value="" style="shape=image;verticalLabelPosition=bottom;labelBackgroundColor=default;verticalAlign=top;aspect=fixed;imageAspect=0;image=data:image/png,iVBORw0KGgoAAAANSUhEUgAAANIAAAk6CAIAAADfdNUpAAAACXBIWXMAAA7EAAAOxAGVKw4bAAAgAElEQVR42uy9f3Ci+X3n+elWIySEhFqPBiRbWC0MukAyMMvYnseVqVGom+CZe66OuvJsjszUJZfU5rwmlQt9e7UVPHW3rruZkKqsq9lNjVw+pyrnvbJPyYzrVnehvCazpZMzuWH8gzOyI8WSggYjTzeMHkkgJCQxdN8fz8PD8zyARKvVEqD36y/p4eGBaV56f3/A8L5mfPM1AuBiuY5/AgDtALQDANoBaAcAtAPQDgBoB9qOG2e4z/3jw+Od3BH/QWW/eL989OD+Rw/uPyB60PQOD+ja9Wt0/cb1Gzeua3W9Bkb7xMSNgSG6dg0vALRriXJ+a+8flz4q5unBg9bv9eD+A7p/XPnouHJ4UM5vle5u9I1NDtxyXLveg9cA2p1C5XA///fx++XjR3zU++Xjg8waPSD9J5/Ea4C53YmJ9dFxYfn7j+6cROnuRnn3Q7wG0O7E4bWwUy7unuNjP6h8lP+HH9CD+3gZoF1Tjvi7DzWfa211cvTR/h5eBmjXlI/ONepq5h2V8DJAuxP8ODz/x3/w4H6ljJcB2jXX7jH5cR9zO2h34X48wJLi6nGjk/3g3nnpKVv5/S/Pf/Orqltsr6y6bhka3Wft/def/aHq2DPf9j3/LDW6jvKxqMF9W+XO5159eXDrW2997bb86Ke+kL01mv/w7enF96BdM+8u/+l+ceZffPmJPsUhza0vv/Tql6u/yV9C1cvZ4L6t86kJGxHd+sKdHyq9OekuX8jeGqW9H3/58Jeqjzv68kuvvkyH77x/78lb4l9F/sO373wgSHn4TvIrn1+Dds3pIRobGi1/dJzb36Vr1+n+/evX6GMG42H5aOugQNeu0YP7vdd7xg1P5EvF3aMD4V66nhtPDI7wxZ1i+fhsb8h+dfErX5XCrJpzZ3nNBCcUKPSVh6IYVO9vvXxr9OXPcbe/Gz39+rZXVmUx9spLTxk/fHt6kb7te970i698Pv/Kqip3196jz736susLd9Za1vqqadf74MG3f+8r48MmXW/f/7v2oz9880/e+uK/HTc8Ub5fMfTp534QfeNv33rjn/7LydGJo0r5Zv/Q//bOm3/6vb985mO2r//W/1I4KpkGR17769l/9//9zVnSUz56KnKu71nXq1mXQj7DE89nX3r+hItVtVAMsvJQFIRbEzYWf/jjdz7+vOlw64vEVTVqOjLesdwy0Na3xBOiP9h76uVh6xdt9KSGDAxH+QZ3uZ16n3Pd4maeuX0FBtyH1u7agwf//gt3/vKH/+Eb3//rG9d7/nvPK7/51H/6idGP//P//V/9bSrZc/36V/+rL/3Wp174pfFP/vZfhBIfrBm0ur/8Z3+6e7j/R//ZF178t//t6oebjG7way//T9/92Xv3Dgpne9J5MTmepeWvfJ5eWXXpo2997fanvpC9pa+Gxzenz2G0euYTfUTlYpZGbURE731+/j1B/dtEhmHrF+m9rzb52+AGKf/hj2/X3CWiW192ERHR4FOrli0ist16NXuLiIiE2F77ZtTy6stPPHWH3rsN7dRL32vXnrV96g+//a/pRu9HRN9defe/dnvv5T/8cXaDbmgqRO9uLP0XTz73/lbmRx+sUc+N3Y+O//rH//FZi2vvcH+V/4BuaPjjw59+sD7cN3Bm7Yis77x0y0aH7xAR7ebKt15+6VWufNhwAM1/+PYdelY+q1t7//VnW3qUUZOGaG/35+pVyTejlldfHhx73kZfbSi3QW8gWtsXQ+v2d1+/LT4rvRjGtldWXaNr77/+A+bVlwe3vlVdyqweHtKg/hM2om6f4T30xzwrDx68Hv3qP//sf/lPjLfYj9mCnlf+758sTo1OBD7znz9luvXMx22+J2e+/s63f/ljtv/u2Zdcxslft7j+m2c//8Y7b+0e5H/r6RdcT3yCsz391MT0L/a2z/ykDU/cMpYPqwPrUzYNEZFB06dasZre+rHs5dv61luvm97fUl7n+exLr2Zfev5ZjThkZ196tSbopyZsRPnDrYYDYp76nvzYMy0ug7IvvZq9NSo+4Zf+xbcN2Ld76FH22p/+P9+K/ey9Z6efdt/65T+Pz/9d+u9/zn+QLmw9Z/uU2+z4n7/79R/fSy1l/uEXe/yv/SfPfIL5+G//u3/1/V+svvTn//KjB/d/7ZfY0aHR/+Hf/5u98tGZn3T+w7enf1EkOnwnKbq19r5aqRavY3rrddNbb79TJiq//+W3Xje99fqXPxRT84sDeqLDn3zQaKa1tv6TMhn6RltcBplE44Un/JXPk95Ah9k89u0ehvt07btrP/zuWnUZ9uD+h8Wd/2v53YPqMDemH/lwb/vbP/mebLl6bau0960f/8dzffJC2hGdYVD64ddMPzxxsUx053N9VH7/7TWatjTawJtvPvHPF/M0ahx4hug9kobXD4vSuidf7iPa+vkakeLKNN1XPY60a0Hd3uC3//XhR7X02trf/R//w//6+D+zLoTH66a3Xn/2h0I4yab1t17NvvSUTTZRe1kc6Vrl9ndfN9U2kPWfEK5lGzYS2RjupHsKWThs/SIR0TPf/vgole+9vV99wsl7pCHa26xbN3CfHmx4HNo1GXZ/UeDvyz4T9dGD+3cfz8dVFHH1lrhXcudz1TnZ3j9IuyetzO1a9S/1fl6clr2add0y0OE7qZO37t77/PL7ec2tVz4lrH9fN/1C/+Vbo0TFn6/RFz82ZiBa46N1U8Bfsp1+5S7hWuvf+JT73v957p+3I6LB6X/SPz7Vff+ywv7fWovvp12xd8keQrsP/3b+wf0KtAMXO8hefyz/U+21a/h/daHdCaf23Hg8TwHaQbsTTu3tfxxZd+0x2Qy6Q7sb+seyud6j7cfLAO2aoh0dP/etuOsa7Y2BIbwM0K552g2O3NAPn+cA29Mz9EufIiwpoN2JydRrsH/6+o3e83rs/vGp3ptGvAbQ7rR5WL/e8MvP3NAbHnG0vX6jV/dx68DUL+MFuJo89CpSM/zE8JO/erydPdr64KP9wv2Pjul+5UEL715cu379Wo+mp69fYxjte2Lihn4YXzQG7R4mq3r7+sYm+8Ym8c8HLmKQBQDaAWgHALQD0A4AaAegHYB2AEA7AO0AgHYA2gEA7QC0AwDaAWgHoB0A0A5AOwCgHYB2AEA7AO0AgHYA2gFoBwC0A9AOgPPl3L43+JmRCdWR97Y38e8LHq92RPR/PPNPpZ9/87038Y8LHot2z4xMsNWQi29v/pu1d+W3/qGVlW5C8oHzTLs/tH1WEEt1XNBRvLXV5Hv6m88/98uF7z31/R/V3fTrsRd/xdrgLtt/9Z1v/FGr5/x67HnDX72d/40XP5ao3utPnrvt3rnj/QlM6MBBlpXF3sPw9Deff+6zGuUx5rnUi8/Vfi1n/vjtt/5c/oPi7r+iONDKOfUPPXA7NUFER++uzL7yPpTotLndw/OjV97+UX3O/bPPBL40lKsT6NzZ/qvvfOOPnvzt1M0PLN/b/ubzz8CGK6KdMnUUOWf+0ou3vyRPL435Sy/e/lKdOhn5b62cU2PkN168/RtERCOpF4no6F3o0FnaWb5zp+Hx1IutdPKKc68/eS5g/vnsK4NC/PyNMBWrnvM33u/8zWnXaeEcjflLL5qJyPr8r6xX0+7H/T996vuEtOs87VrT65TMeyJ7x/s+EX3jr567nXre8Mdv58Ubb730Y7tZqupZ37zjpd9OTYxUDxy9uzL7CrVwzvvyyd/T33z+uWraPYe0u2qDLBGR+TPPPHG8bZ0QpvZEROv7A196bmCd9sXf939q+d7fiAtP9ZGAufVzxFF4+6++841X3v4RPfnbKdP+459EAjVt8eZY5vuz3h0q8N+zfOeO5Tt3/pg/op1vWL73wfk/Ujnzx9/53rtlcetEcM763O3YkzChA9NOtVEsIezbtciQbEmx/jh2l28ZpKYp93O3rQPiwqW2h9Jg/wV07yArUOCVG8UyS2jgV1Ivittv6zuqI9U52annDA5Q4ad/TuQhSnzvjrd6bewYd6p2D5VqjfnJN56Sfn5SXA0U+O/9+fnN7f7k5sDf//xHRE/jVb90rhnffO3Md35mZEL+9n8zfvO9N/GeLDjPtMMnTcBFa4cMAx28gQKgHQDQDkA7AKAdgHYAQDsA7QCAdgDaAWgHALQD0A4AaAegHQDQDkA7AKAdgHYA2gEA7QC0AwDaAWgHALQD0A4AaAegHYB2AEA7AO0AgHYA2gEA7QC0AwDaAWgHoB0A0A50O+fWOWYdZFRH1vd4/PuCx6sdEf2+jZV+fmMtjn9c8Fi0sw4yVr3YUL1e3P7u3VX5rS+M26SbkHzgPNPuc+PTRLReVFsl6CjeenryWQIuK92NzeYa/irDyIbHKZaML9RfY3ImwmhXN2OzOfI7vCNbwt2dIfdYfrN6qcmZCKNv9ATKq5uNHg608yBr1TNWPfMIF0jN7poj46wnF18g8jvsht1ouKFzE9pkYnGh4TXSi/O9Xt8468lJljtDbvPQXkZh/WEmuLzUQHrQoXO7M+B3cGyf9Jve5+Z8wo99XETQuMLPC9lWdW6u5op9uqxwaGEtJhjpFw8shRNLeI0fnU/ohssPKndLe12i3dxydK6F0zw2r09XmBdzzhJw2ad7iIioxxxx34wnFkmhLxERTXCRidpvpb2V0FqKiKjPHHGbGwyykKsJkwPDv2a0jGp1b2V+mt7fbSPtbieiDY/fcXOn3dUZcptNyjnWisHrpfXQmj7k0sWT8YXJGd+ghoipZmF5dTMazMlGXhcbS0aDtVF1Jamxs30Nx1MMsg+9avzV0clvbCSI6A+mP/udu6vnsjo8H+1a0OsEivHq0Ol3eEcaTdqC6eb3zsVDOUvAxfl6hEtF54g8Nmt2PxammYj0xBoqCE7EYTB+emRCcI6I/mz13S9YP9N7vWc5n2sL7R4NPevm2JMHOyMbnmD6G92S5aPhdGo2mZIfNGkonyfKNfIVg2zLOSd3TuBr69//HcvTx/crj5h57aDdaWnXPK78Dm5KNds7dW6HQbY11vf4hm79RepH7TLIqjaKJYR9u3NIu1P3X+RpNzkTGdaWeo5ky16ADZTT0q66D+JsYXCk7D4phGP0VOHnk4sL5Ay5uYjs4hhku0271lLt5GW68P5BMZ6TzeQOMwsPNchW+PnaZrKwaSfIJ9v/wyDbBlwzvvnao8w65W//N+ONtTjekwXnmXb4pAm4aO2QYeBs4NPFANoBaAcAtAPQDgBoB6AdANAOQDsAoB2AdgDaAQDtALQDANoBaAcAtAPQDgBoB6AdgHYAQDsA7QCAdgDaAQDtALQDANoBaAegHQDQDkA7AKAdgHYAQDsA7QCQ0w51KGQdVFcg48u4od1FIO+3QOkAtHuMCWfVi71268VtVWvZC+M26SYkH7Q7T4TKqPWi2ipBR/HWk5NvcibCaFc3Y7M58ju8I1ux2RwROUPusfym8LNUK1VPeVU6x8iGRw9C9YWzRjY8TjGhNWpyJsJQXNkab9iNhtO1X6WWx+xh0dSnb/pw0O7yJ3Z6xqpnznjn9OJ8r9c3znpykp1CgXZGYWuLPWOy1tpaEah0WUZPRLUyyEq51EP9DBcRnnuFn09GZyV9J2cilAkuL3lsXvY4Fk6j1qwt53ZnplrHSH7xgNBw9xD4HRzbR0RMZEIq3/ayGnPEbRdO8LnY58rMzcNMcP9mZPhoPhknm9c3eJRM3Jtym4mXAk9JrcpRUBMljl2hXVUXGc2qi08s85xbjs5NzkQGdoLLFHKxnmTcpKH81mI4JxtkJ2cijDnSR0R6n1gEr2HdeiIihoswQom38vKHSLs21u52Itrw+B3x1W3K3HJ0rjaqriQ1dravcf/nqYOsf0BPffqIIxPc1YZtzozmiAzeUH8sXGokcR0em5eVp6Z7bHXvCGnX1tqdqlcTpCm8NDJas/uxMM1EpAs2VLAeIztFxdLhTqx8M1DKZIbt0+VMcI1CLtZTqk0iQ+QMuTlTw3WJONBH5+RzO6RdNw6yyqJ2IpOG8nmi3GIwfcI0q8Eg6zFo8/tHQwO0sLa4QOQftZNG56F4/GDG3n+kuIfUhVwb6L0jTdY6wROfLbTrUBQbFqfM7U4cZE10tFIi84C428JSJl42e22W0NrigpEND8vu1MP43JxP9UQmvAFS74x4bF7foKb6m7jazTZbfEC7i0e1USxxWhG8Mj8mZyLD2lLPUbK2r9Yqc2txMrJecZdEu7q5NJejKbfZTyn1perSrkHg9Zkj7rHVzVhwrTrtO47Btm7bQBF3gyv8fHJxgZwhNxehYlwl34mDrEwgM/HR2ZywC3PG9M3y0RAka3/tTku10wbZCj+fWKwmkLBpJ8gnC6fWtovnluVramfIbTYRlfZWFk4eZEV9Zekr23aWD7INw/Jqcs345muX8sDWQUb+9n8z3liL4z1ZpN15gk+aQLuLBhl2lcGniwG0A9AOAGgHoB0A0A5AOwCgHYB2AEA7AO0AtAMA2gFoBwC0A9AOAGgHoB0A0A5AOwDtAIB2ANoBAO0AtAMA2gFoBwC0A9AOQDsAoB2AdgBAO9ChoD0bXFXtCO3Z0O7CEg7t2dDuEmij9uw6Grbn+B3c1L66wMlj83ppXWyZQsN2pwyyl9+eXWsvqavvqSG2o1Bfk/ZY4Rw0bHfW3O7MPHp7dtXLYsBlrulFJLbnSNU51R88Ni/by4bd8p4de8Rl3EHD9lXQ7rzas9VUeEEa9jgWTjtDLp14XNb8lOXjoUTdIIuG7Q7Srh3as1tCnnbC3e+q52Fo2O4Y7S6/PVuMQyIqSjNCsRRZjiLtUrN3jWHFnBIN21dikD239mzZ3M7qcpn7e0gcIqtDts/hXFhWpR1RLh4zeNlJijcJRdlkAA3b3aPdubVnyzhKJmNz1bUt1UZMS8BlN/WQLO1qqxmPrWkoyp4YGrbbTLtLb89uIPT4UGYzumKYCRhTszn5Y1kCLjMdaA0tTAHphMC78g3baM9Wze0sAZfdfLASyhHlMnYXF+qvxk91a3rF4GXPLDQatttEu7ZozxZPcIbcdqo5kZpNpvwOLuLIxMnMUiaYoJCb81F5dZNkO3zFeCJ1yiCLhm0laM8GVyzt8EkTaHfRIMOuMvh0MYB2ANoBAO0AtAMA2gFoBwC0A9AOAGgHoB2AdgBAOwDtAIB2ANoBAO0AtAMA2gFoB6AdANAOQDsAoB2AdgBAOwDtAIB2ANoBaAcAtAPQDgBoB6AdANAOQDsA5JzbV2ZbB9VVxPhSbPDYtSMiec8EvvwfPC7trIOMVS+Waa0Xt1XtYS+M26SbkHzgPNNOqG5aL6qtEnQUb33I5KtVD9Y3IRnZ8DjFGtYjVTvBZnPkd3hHtoRGQ2fIPZbfrLYbCgVlDSivbqobEEG7D7JWPWPVM2e7r7LfkoiIDjPBRKP6YSMbntAmaw1jStKL871en6JaWCjWzsRVF3/0Jm3QPnO7M9NSiWrVubmaK/bpssKhBbGhmvziAaH5DkC7RpiYar9gPdVac5+uUG1SlBUY95gj7pvxxCI5OLZPecdmlcanlnyCTtHudiLa8Pgdof38EdNucsY3qCGSCjPLq5vRYE6Wgi42lowGa6PqSlJjZ/sajqcYZLtIuxb1OiPpxeAJUubioZwl4OJ8PURUjCeic0QemzW7HwvTTER6Yg0VBFd5kG28sJC7oi79VSWlssCdyKShfJ4o18hXDLLQrqZIr2z6JW2IDJw8OJLfwU2pZnunzu0wyHaNdqqNYokWCtmdU31HGzkiw6M8vjLtJmciw9pSz5Fs2QuQdoqxdcx0eC9M5CHqH7RH3HblILtz2uBI2X3F4iPC6KnCzycXF8gZcnMRKsZV8mGQ7RrtWki1hljsuqN4ckk9Dp55kK3w87XNZGHTTpBP9oYHBtk24JrxzdfOfGfrICN/+78Zb6zF8Z4sOM+0wydNwEVrhwwDZwOfLgbQDkA7AKAdgHYAQDsA7QCAdgDaAQDtALQD0A4AaAegHQDQDkA7AKAdgHYAQDsA7QC0AwDaAWgHALQD0A4AaAegHQDQDkA7AO0AgHYA2gEA7QC0AwDaAWgHALQD0A5AOwAugHPrHLMOqvuv0VoBHrt2RCQvgkI7D3hc2lkHGat+RMy24raq3vOFcZt0U9cm3+RMuDejaOgDF5B2QrfielFtlaCjeGuryWcJuOzmg5VGr6Iz5DabGtylrrfTyIYntMnE4hw5Q+6bGw0qZS0Bl5XuxmZzojeRgR1156L84ORMZPhIbGeUn8Doq78o+kizfDSchlcXMsha9YxVzzz8/Rq1XqtaZaVCTukHxd3VzbD+UYb2VuaIiJY2DjmXzTL38FHkH9BmaUxWO6v3uTmf6vmcVDQKLnBu9/BIrdeKnPPYvD5doU6yloY8VsPPL4uezS1nptxmP6Xm6iNKUemuFwwTg8rIujSF2KmP3kqtcrfw5PAYEf1k9153aKcMPEXOMT4355MnXA9Tixz5ICsfiBnt6uaiTJelMD8TcbFZ4SLpxWD61EHWEhhn6GBloWESy8f0K5N2kwPDv2t5mogiP/u79P5uG2l3OxFtePyOm2vh3uJr6Xd4R7Zis/2SB86QS1cTKLF04kWcIbd5aG8lnFMeTi/O93p9LpZay06PzTrdQyVFEl/ptBOaqoXX946bO69G6vPRrjW9Tsk8w240nCOixbiDi7h088kD2SqB6ZfP2Uk+oy+vbsa2R81Dtc53Z8g9lt8U82xhLUY2r8/hXFheOvV5mDRHcf7I1dtk3nnF0s5hMP7eJz8tZcrtRPSOm/v6P/5gOZ/r9EGWiGjEZjWUiyaGi1SXJdlDrc+hzdIRKV/j2utaO+IdIZpbjs7VEmtsaG9dHnsLa7EFsgRcXE2jRnM7qvDzycWFyRkX0o7IOsjInZOb9+iZ1xbaba/FZidnwuXakoI9Xgym5YNsyxhZr64QS6ZqCZpWLV9aXs86OLavSdqJ08RuZn2Pbzh3ajahugTtVBvFql29FumXLSmyZ/xbsgTGtcmksKpIzSZTfoc3YKyuHuQ+kRCWJ+wUisO37L7OkPum9MNGYmfKpYsnc3aXfbqneqaRDY9T7AxrcGygXBalPeXLb9QNNRrRxFGsdqS8WvPJbtiNzgpbMIOa6ng6488tyvdQSnsrQfGBUrPJlMfmjbjtrW/z+h1m4qNz5AwpQ9Rj83ppPXTXGG55BQPtHomHSrXGpBdDsu03YcVQ2ltZaG1uJw7NfUR9XISh0t5KMJGSrha2WebWUmLIJRZVj7ywFlsgZ8jNhUhlnmZaMQUkouIG0dyyMMoU82RW7ukU44kUUSqUg1encM345muPuLo+9bTzWnVf1D6V+DaruKGjHGQbvdsGLly71uen+LcG5zPIQiZwNvDpYgDtALQDANoBaAcAtAPQDgBoB6AdANAOQDsA7QCAdgDaAQDtALQDANoBaAcAtAPQDkA7AKAdgHYAQDsA7QCAdgDaAQDtALQD0A4AaAegHQDQDkA7AKAdgHYAQDsA7QC0A+ACaIvOsfpaFTReQLuLQF4i9cZaHC8MtHtcCWfVj4jZVtxWVYO+MG6TbkLyQbvzROhlXC+qrRJ0FG9tOfk8Ni97HDu5nLPZOYoi0DrEzs+6rthWHhG06SBr1TNWPXO2+9YVXNdq36nCzzcqdZVXwxPVCkLVbbayh5hqeHA/iqlAx8/tzsbccnTuIbOnWV2xvLtbfZf96k89jM/hXFimqb7ixjKR7apY8uTwGBH9ZPcetKu1HTdOO8kw9Wmyc6pRp067aqWs/LHCA0QVPl6+GXJoTaQxuTn51ZqFZRcwOTD8u5aniSjys79L7+92iXa3E9GGx++Ir2tz0ovBtDDOFuPqdmFnyH1zI91ArxpGNjx6gsfV8Kvw88k49WoL5cKQhrL5I9cExROxuasxtxOaqoXX6I6bO69G6svX7nS9Th1njWzYzU3x0TCJKeWxjZkO74Uf/mpiaElpZ2TD40Rksesov0tDOqJc/Op0sjsMxt/75KelXLidiN5xc1//xx8s53Mdr92jIKxAs3w0lBB+1RaOU0S0sBZTLCb6zBG3ucH9Dw+kHwvHKSKzbIZXSzui1GwyRUY2PFy/jhEH2WZTxo7OOblzcvMePfM6W7uFtdgCOUNuLty7Eloju47y+cZj8cmYNBo6lp1ZP7drtI7p7kF2fY9vOP9pNinqMO1UG8USwr7dqVEn/jJoj7iJiGiCi0wopnQem9dL66G8Udx1m5yJDOwEl5dkbllGNMWNtDPkNptql68tbLt4uYANlLNFXQMFFeOdkfXqCrFkiogy41a7kRbSO1n3TT/RXHox6fAGjKnZfvN0eSdIFJK2+gQjj83h3kyMrF5o0n3anZpqzZDPsUp7K8FESjouJF9pbyWpGcrcFexMrRxYvQYL5ZY2DrmpSaI0zW0VwqNOP2lXt5aInOLydoLpF9KOiMjuI8ryqea7NtXtmCa706Ah14xvvnaJK/NTTzuvFTtA2tWUwgsA7S56oYR//SsLPl0MoB2AdgBAOwDtAIB2ANoBAO0AtAMA2gFoB6AdANAOQDsAoB2AdgBAOwDtAIB2ANoBaAcAtAPQDgBoB6AdANAOQDsAoB2AdgDaAQDtALQDANoBaAcAtAPQDgA5Nzr9P8A6qK5AxpdxQ7uLQN5vgdIBaPcYE86qHxGzrbitai17Ydwm3YTkg3bniVAZtV5UWyXoKN7acvK10pXY7BxF414dYgGakRWL9h7mEaFdu8aenrHqmbPdV1kLS4oy9yYFYiZGUQovlXI3q2D0O7iphgf3o1d8KnDjyv6XS7WwrWdPs65iWflx3V32qz/1MD6Hc2GZpvqKG8tENmh3BVEXJSrTTjKsWZ+iLOrUaVdfgTw5Ex4gqvDx8s2QQ2sijUnsqRevdgX7ajtbu2ZNznfE17U56cVgWhhni/HE4pziNmfIfXMj3UCvGkY2PHqCx7XC9xuRwQAAACAASURBVPlknHq1hXJhSEPZ/JFrguKJ2Bzmdh397E/X69Rx1siG3dwUHw2TmFIe25jp8F744a8mhpaUdkY2PE5EFruO8rs0pCPKxUM5rGKv9txOWIFm+WgoIfyqLRynSFnKTUTUZ464zQ3uf3gg/Vg4ThGZZTO8WtoRpWaTKTKy4eH6dYw4yDabMkK7LmRhLbZAzpCbC/euhNbIrqN8vvFYfDImjYaOZWfWz+0arWMwyHYwqo1iiVOL4BWbbYN2oeSdJrjIhGJK57F5vbQeyhvFXbfJmcjATnB5SeaWZURT3Eg7Q26zqXb52sL2Ci4XkHYnR10DBRXjnZH16gqxZIqIMuNWu5EW0jtZ900/0Vx6MenwBoyp2X7zdHknSBSStvoEI4/N4d5MjKxeKNZ92p2aas2Qz7FKeyvBREo6LiRfaW8lqRnK3BXsTK0cWL0GC+WWNg65qUmiNM1tFcKjTj9pV7eWiJzi8naC6RfSjojI7iPK8qnmuzbV7Zgmu9NdzDXjm6913JO2DjLyt/+b8cZaHO/JIu3OE3zSBNpdNMiwTgefLgbQDkA7AKAdgHYAQDsA7QCAdgDaAQDtALQD0A4AaAegHQDQDkA7AKAdgHYAQDsA7QC0AwDaAWgHALQD0A4AaAegHQDQDkA7AO0AgHYA2gEA7UCHgvZsAO3OBNqzod0FJRzas6HdJdCF7dmKc5whly6ejC+o71g9Du0uM/a6sD3bEnDZp3uIiHxuzkfVH1RPqVa90uD5QLv2pZ3as+WqMVk+GkzXp50l4OJ8VR29h8WO7u65qi08DdqzGxl2wmnVaBHr8E5tz9YcJQ+0UxqtqU89Igth6bF5fbrCvFCop37QateyZGHdqI1B9uLopvZsk0YjJuJ+8/mlYai/R+Nzz5g2j6iHkUZhIiIqr27GZtusJtl62Ks6st53TGjPbpf2bCPr0pRLlUKyPBYaOFJOFi0Bl9Cj7GR1VKrwsV2td1RLFX61PERbgmqWgMu8nUPatT1t1Z69McAUDvghHWXXYnOTMxFGNVksxok8tjHavVcY1lF6MWRkw+O0sn/kNVgol6JJsV8U2rU7bdWe7bfx8Tx5dYoH9Tu8I1u1cdNPhXia2GFhFaPtL+8spA9YtzVgJBrWrt5dImh3MXRNe/bcWpyMrFecWcouJT0lcd3qFFZSnl5tqVwkSoU3deEJe4GPhnME7Toi6hoo2Abt2UvhxJIwHLvKmYxGt7Jct1w1st7Bo2QiJezeFfb4IYYLUfTUDSBodz50YXt29ZwsHw0Jb28Iy1XZgto+yhT4zJSbi1T4+UR0QVx2cJGBjtkuRns2wAZKy+CTJh0N2rPBJYBPFwNoB6AdANAOQDsAoB2AdgBAOwDtAIB2ANoBaAcAtAPQDgBoB6AdANAOQDsAoB2AdgDaAQDtALQDANoBaAcAtAPQDgBoB6AdgHYAQDsA7QCAdgDaAQDtALQDV5P71xr/2hZfmW0dVFcR40uxu4N8T+XmRz3yX9tIOyKS90zgy/+7Bv5G5QHRYOU6Ee313N++cdnaWQcZq35EzLbitqo97IVxm3QTkq+j2b5RkWyTuMy0E6qb1otqqwQdxVtPTr66Eml1l3X1oE9zL7i8RE1KpxXNd3WIRWSNHquVqndQz+UPslY9Y9UzZ7uvxzBEB+sLjWzzO7ipfVEX7yCtbi4REeXiyVGOnaSFOleaVSH6HdxUw4P7UUwFOli7R8Bi12n6e+wRt720txIja9hGMSIifcDFGXaFxkFnaILpJ5qWl3b2VTvmZJWKshLiurSTWtSFUvVlmuorbiwT2a6KJU8OjxHRT3bvQTuiSbP5YCUoRJSRDU9o+snuIyIyTxMRw4UoujFgNimTTNUN3Djt6quIJ2fCA0QVPl6+GXJoTaQxiX3xosEt9sZ25D/zwPDvWp4mosjP/i69v9sl2t1ORBsevyO+rk3xD2hJI0RUeZUvyKsvxYmX0FZd34FeS75iPLE4J3NLVrxZK16fT8apV1soF4Y0lM0fuSYonojNXY25nVBmKbxGd9zceZVWXr52p+rVjLnl2Jw0zTeyYcYccZuVS4EGSdYs7RRnSmlnZMPjwmhO+V0a0hHl4qEcXREcBuPvffLTUi7cTkTvuLmv/+MPlvO5jtfuzEhVxD435z0sNkw7AfW8TTbPk4wsHKeIzLIza2lHlJpNpsjIhocVjysfZBW1292Sc3Ln5OY9euZ1sHZzy1FF2k00Sbv0YvA0IUwaDR3Lzqyf26ke9wpsoKzv8Q3nP80mRR2mnWqjWOKhC9mbpZ26Kr1+GWEZ0RQ30s6Q22yq3VgLyC5eLmAD5ezYHRxb5hsH2AneTM6Ee8UV8XR5J0gUqvDzwm6wkHbH5nBvJkZWLzTpPu0eOtXk9Gv7e/SG3Wi4xIZHhUNSaJVXt5rM7WppJ66IV7eWiJzVjRimX0g7IiK7jyjLK3ZSlNlZ3QKUlAUtcM345muXuDI/9bTzWrEDpF1NKbwA0O6iF0r417+y4NPFANoBaAcAtAPQDgBoB6AdANAOQDsAoB2AdgDaAQDtALQDANoBaAcAtAPQDgBoB6AdgHYAQDsA7QCAdgDaAQDtALQDANoBaAegHQDQDkA7AKAdgHYAQDsA7QCQ0/F1KNZBdQUyvowb2l0E8n4LlA5Au8eYcFb9iJhtxW1Va9kL4zbpps5KPmV3njPk0sW7tNmnU9NOqIxaL6qtEnQUbz05+aR2Rtmr7qV1VTuZx+b1ae4Fl5fqz6+dMKhp9iBi4Wejx6prZ7TYdUcbxzMRd61cyufmfMJPyiI/aHepsadnrHrmjNFiGKKD9YVGtvkd3NS+qIt3kFY3l4iIcvHkKMdO0kJdk2ezCka/g5tqeHA/2uAPwmg0l3dm00tzSLvuxWLXafp77BG3vbS3EiNr2EYxIiJ9wMUZdoVOYmdoguknmpbVHlNftdtOVl3crEqPiLL71Z96GJ/DubBMU33FjWUiW6M/g3KOyBJw2ad7lGnXdT16V1W7SbP5YCUoRJSRDU9o+snuIyIyTxMRw4UoujFgNrVW+K5Iu/oK5MmZ8ABRhY+Xb4YcWhNpTGJPvWhwaW8ltKZnBzW0J9yhvLopexSxOB5p1zY0a3K+I76uTfEPaEkjRFR5lS80rECeW47OTc5EmGaF78V4YnFO5pas8LNW+D6fjFOvtlAuDGkomz9yTVA8EZurm9t5bN6hSrl6d40iX0kojod2bcOpejVjbjmmKHxnmhS+t5Z2ijOltBNTymLXUX6XhnREuXioyX1NVEgeDLkIadfV+B0c2ydOnryHxaaF7/XzNlkOSUYWjlNEZtmZtbQjSs0mU2Rkw8OKx5UPslk+Gl6Le2xepF2XM7ccVaTdRJO0Sy8G06dcSmyHl86sn9upHrfpBooE0q69UW0USzx0EXyztFNXtNcvIywjmuJGWmqKV87tmu+tnAjSrtuxOzi2zDcOsBO8mZwJ94or4unyTpAoJO1xCGl3bA73ZmJk9Z7lSSHt2puHTjU5/dr+Hr1hNxouseFR4ZAUWuXVrSZzu1raiSvi1a0lImd1I4bpF9KOiMjuI8ryip0UZXZWtwCFBS8RkTHkZkzKGaSAz8VSF23dXTO++VrHPWnrICN/+78Zb6zF8WkUpN15gk+aQLuLBhnW6eDTxQDaAWgHALQD0A4AaAegHQDQDkA7AKAdgHYA2gEA7QC0AwDaAWgHALQD0A4AaAegHYB2AEA7AO0AgHYA2gEA7QC0AwDaAWgHoB0A0A5AOwCgHehQ0J4NoN2ZQHs2tLughOvK9mxo1+50Y3u2gDPkHstvNi3Ug3ZtEHvd1J4tOmc2EZmUdShnapCCdu1I+7Vn27y+QU2WjyrK9YSY7C7nCO3Z4kt72e3ZMbL6dIX5RNzk8AaM1YeYnIkMH3VZXXs3aNc17dlEKdGt5XshNxfqj24McCxlgsklzO3ajq5pz5axFN8b8zEcqUZbaNcFtF17dlp9q4mpTSKxpOgS2q09WxCuVCmX9tQ7OLXuWmjXJnRNe7ago8fm9V6NP3u0Z7dXe3bDvRihMhnatQvd1J690Mzybhxk0Z4NkHYtg0+aQLuLBhnW6eDTxQDaAWgHALQD0A4AaAegHQDQDkA7AKAdgHYA2gEA7QC0AwDaAWgHALQD0A4AaAegHYB2AEA7AO0AgHYA2gEA7QC0AwDaAWgHoB0A0A5AOwCgHehQ0J4NoN2ZQHt2+4bCofpL5tf7jgnt2QBp9xB0YXu24hxnyKWLC8VUijtWj0O7y4y9bmvPJiJLwGWf7iEi8rk5H1V/kFWmiI6K1SsylBVW0K4Naav2bLlqTJaPBtP1aWcJuDhfVUfvYZFUIiLtOoA2a88OJaMem9enK8wn4wuTMxG3Xpl2M6bEolgQKrVCjmOQvSS6qD2bTBqNmIj7J00M+ns0PveMafOIehjJSyIiKq9uNq1YhnbnSfe0ZxtZl6ZcqhSS5bHQwJFysmgJuITn5mR1VKrwsV2td1RLFX61PETi87EEXObtHNKuvWm39uyNAaZwwA/pKLsWaxCxVIwTeWxjtHuvMKyj9GLIyIbHaWX/yGuwUC4l9YtCu7am7dqzbXw8T16d4kFV4eqnQjxN7LDw16DtL+8spA9YtzVgJBrWrt5dImh3MXRPe/ZanIysV9iZk19KCldx3eoUnpinV1sqF4lS4U1deMJe4KPhHEG7jqHd2rOJlsKJJWE4dpUzGY1uZblul8TIegePkomUsHtX2OOHGC5E0XAa2l0I3deeLZ2T5aMh4e0NYbkqy2P7KFPgM1NuLlLh5xPRBXHZwUUGOma7GO3Z4HG+Ut30UQDCJ006HLRng0sAny4G0A5AOwCgHYB2AEA7AO0AgHYA2gEA7QC0A9AOAGgHoB0A0A5AOwCgHYB2AEA7AO0AtAMA2gFoBwC0A9AOAGgHoB0A0A5AOwDtAIB2ANoBAO0AtAMA2gFoB4CctvjKbOuguooYX4oN7S4Cec8Evvwf2j3GhLPqR8RsK26r2sNeGLdJN7VR8k3ORAZ25E03tXp30Clzu8+NT39ufPqTMv9EI/Uj0q0tXMYZcs/4TzvJY/OGJqu/GNmwi/UoruANGOWnWwKuRtdML8bJHHE4Jedc5RU415GDrFXPWPXMme/usY2ZDu+Fm91sZMOjB6FTmriWwoliwOUNGI6mB2WdYG5OHPgPM8HlJY/N6xvUEBGRrAW0zx5x21UFjaBj5nZnxckOahQeVBGbEXPxUP9MxOGcL5OqM1NsPBdr5lKzyZQy7czbSVknOxERZXlxPPXYvF5aF5sXJ2ciA11uyZPDY0T0k9170E6KugZJ43dwrtrIuJN1m319lOXFzkySCoyl8VdsFLYEXPbpHnXaSbaZmGonIpG8NJYOd7rYucmB4d+1PE1EkZ/9XXp/t0u0u52INjx+x82dOsH36ajUI4+68uqmWDddOE4JSvkGj+KJaNzmZZWd6ULaZflo/PhoiOHCvSuhNSnzkHa1ld/v21jhNbrj5s6rtPLytTtdryb4B7Srd+8ZxnXV3LIEXFbVOQtrMTHS6tSRsbhQYsPjxoDDPt1HDeZ2FX4+Gb+CaecwGH/vk5+WcuF2InrHzX39H3+wnM91vHZnZm45RuQMTTDiLE1Iu7rRlq2ZxJmIqE+uTnVul4uHcsLk7+ZGQh5yQuzFF4g8VyztrIOM3Dm5eY+eeZ1f2i6vnq66MqIp50uCmtE5+YSvzGcoN7tWHX8198R5obghR0R6Vgo5kWJcGZz1uyrBboy69T2+4fyn2aSow7RTbRRLnKGQvbbHUeHniQ27xHWDcFyoQffYvGGXtb9HU9pbCS6nquO1Pru/SOQkKsbr0k691KgfZBvbD7o47RrN5MQFR3nH5OAifVTaW4kf2qeEDZQKHz8YYgeLyTVpx8Q51VfcWBZ+bph2qu0V5SALOlG7M6SajKWNMieb28kpr24uzeWW5sQR1m5ibsYTUWFjeY6cITcXIaLDTHD/pqlyFJcka5B2AGmnXlhE585yWnUPj4iIgukGuzMRRl8dr0+MVfDwXDO++dplLZRan9viderU5fBhr/rV7Du+zLSDTFcZfLoYQDsA7QCAdgDaAQDtALQDANoBaAcAtAPQDkA7AKAdgHYAQDsA7QCAdgDaAQDtALQD0A4AaAegHQDQDkA7AKAdgHYAQDsA7QC0AwDaAWgHALQD0A4AaAegHQByOr4goP4b3/Fl3NDuIvh9W6025421OF5UaPe4Es6qHxGzrbitai17Ydwm3dRGySe26dU6WPwObmq/vmUUc7s25nPj058bn/6kzD/RSP2IdGsLl3GG3DP+007y2LyhyeovRjbsYj2KK3gDRvnploCr0TXTi3EyRxxOyTlXeaWZc4pHbILfwYVtFqTdZcSenrHqmTPf3WMbMx3eCze72ciGRw9CdY3wSpbCiWLA5Q0YjqYH9bXDUl/eYSa4vFSrfiRZ13efPeK2U6PS+aZ5yegVR/oULY+NGpqhXdvhZAc1Cg+qlPZWQmspysVD/TMRh3O+LKSa2VQ9QSzXE8s8Vf2LZyt8r+8OldUtV9UUn1iT8JtC2rU/HtuYqVHS+B2cqzYy7mTdZl8fZflqNZ6RDY9TtSaePDZv6DgWTtd5U007ybYWCt9r5Y4em5cVLyuErmoQt0+TWF/rd3BsX3l1M7aNQfbCaNbkfMfNnTpg+XRU6pFHXXl1MzabIyIqHFfrtQeP4olo3OZllf3vQtpl+Wj8+GiI4cK9K6E1KfPOlnYKsew6yufrZ4c7Bbc94i6vbkaDOUvAxfnKmeBydI4sARfH9hTjy9DuQjhdr2bz8QHt6t17hnFdNbcsAZdVdY7U3uk5afK0uFBiw+PGgMM+3UcN5nYVfj4Zby3tpD8J83SPhia4UL/q4WSJ62YKfDRIMxEXO5+Mq1qWoV2bMrccI3KGJhhZBXJ5tW60ZWsmcSYi6pOrU53b5eKhnDD5u7lRV4G8LbTGt5x2UsQKGRYZyAS3VEtvs6nCzyeiC0REi8ESG3ZzvtbXJdDu8hHXBIoBbkRTzpcENWvNx34H5yrzGcrNrlXHX8098ZUWN+SoSeG7Ijjrd1WCst+mHByr4ecTwlNKzSZTfgcXMvDqP4MeRl0Y3meOuM3UOfJ1tnaqjWL5rt7DrzCqexwVfp7YsEtcNwjHs3w0lCaPzRt2Wft7NKW9leByqjpe67P7i0TOJoXv9UtU5SAr2p8joo3laFidylFpSTEnTuPqJo7KVQ606yQUgTQ54yvvmBxcpI9KeyvxQ/tUdXSLHwyxg8VkbRfDOdVX3BDn8g3TTrW9ohxk5cuIVp9p/aMQVTrsbejO1u4MqSafoW+UOfVoVVvVLs3llubE0c1uYm7GE2IUzZEz5OYiwnba/k1T5ShetwMiS7uzI42qpb2cQuVEg7TrLK4Z33yt42yzDjLyt/+b8cZa/ALfk5UtKaS3ExrMHa8W1sNe1ZH1vuMO1q7FM/EhqPbUriMHWcjU6eDTxQDaAWgHALQD0A4AaAegHQDQDkA7AKAdgHYA2gEA7QC0AwDaAWgHALQD0A4AaAegHYB2AEA7AO0AgHYA2gEA7QC0AwDaAWgHoB0A0A5AOwCgHehQ0J4NoN2ZQHs2tLughEN7NuZ2l0AXtmcrruwMCT/XP5ziV6TdpcReF7Zn18qipKoWn5vzqSoujGx4gulXPZfO6Ry7ynUoikJsObWS6smZyMDOfHmMPb5HTN3JjdtOGtSCyWuJ6xoWd4LLRXkvWZaPhtPOkEsXT8YXan1iiu6y0mGRNEft3zPWVb0U50I7tWenZpMpj83r0xXmk/GFyZmIW69MuxlTYnE2mao9egcWPnXPINtN7dkmjYZ6GJ/DubDf/E/FMNTfo/G5Z0ybR3X1nrXnD+0eL93Tnm1kXZpyqVJIlsdCA0e1Ub7qsTArYHVUqvCxXa13VEsVfrU8RFuCapaAy7ydQ9q1N+3Wnu0fZQoH/JCOsmuxucmZCKMsnKVinMhjG6Pde4VhHaUXQ0Y2PE4r+0deg4VyKZo0T5d3ghhkO4P2ac8u8/E8eXXVg2nhQb0jW7Vx00+FeJrYYSIi6tf2l3cW0ges2xowEg1rV++itP2i6KL27PiCkfXWr68nuMiE/C/EKWjt6dWWykWiVHhTF56wF/hoOEfQrvO47PZs+UbgUjVfMxmNbmW5bpfEyHoHj5KJlLB7V9jjhxguRJ30hgfas9usPbtagSzkKxnZsPAMZXs99lGmwGem3Fykws8notUlERcZwHbxY92ERHt2p7xSaM8G7aMd2rPBJYBPFwNoB6AdANAOQDsAoB2AdgBAOwDtAIB2ANoBaAcAtAPQDgBoB6AdANAOQDsAoB2AdgDaAQDtALQDANoBaAcAtAPQDgBoB6AdgHYAQDsA7QCAdgDaAQDtALQDQE5bfGV2/Tev40uxod1FIO+ZeGMtjhcG2j2uhLPqR8RsK26r2sNeGLdJNyH5oN15IlQ3rRfVVgk6ireelHy1VrgsH90YkPdwkrKKyRlyj+Vbavm1BFx2w+4p/V1+B+cqrzTvDQNtP8ha9YxVz5zxzkJJsM3LEinroxV9X36H2URkktoKRRrWTadmk/qQ2xsoKW8ysuEJpl9+Yp+8JbGTmquh3eNDb+ih7WoysVTMEsk7hv0OjqV71d7p+uJNpaMVfv6uVDbXIA79Du9IV1vyCd1w+UHlbmkP2hERUQ/jc3NElK0O1FItbGlvZY7IY/O6yivBtRSRM+TmQnw0XGLDE0yBjwbTUryJzcTscUwxtk7OhHszoWpvcX8fE3FXE5RR1mgTlYQW625kcmD414yWUa3urcxP0/u7XaLd7US04fE7bu4hB1miup7q2q9G3RBRP8NFiIioUHelhXzBO+okqhVj+ge0ma2U4jpiUfaSbHKpKmrvNqyDzK+OTn5jI0FEfzD92e/cXT2XFd7la9eSXi2hmVbM3sqrm+s0Xh1Aa9Wr4iAbcRORrKc1l8uMWwPGJXGKZmRdmkJMOV3zlDJBMkdqT1hVINttOAzGT49MCM4R0Z+tvvsF62d6r/cs53Mdr935DbLl1b0jMwnDojPkvrmdS83JBz7ZoDm3HK3TJTV71xgeZz25+AI5QxNDmU15cIqrZl914RxOCwe5CFFprwtXtdZBRu6cwNfWv/87lqeP71ceMfM6XDvVIJvfKUyY/ZTK2saG9tbnqH7FcOLyMxcP9c9E3JyvwcpU7FKvGWzLhNaUB7uL9T2+oVt/kfpRNwyyqo1iidML2Y26IfWhpTA/E3FzVOHnkyn5ioHIEnBZ6a5ih2W76VihMfQrh9fqSkWG3GBFqTro5rTzGIboYH2ByCM/2KslIuoZshtpQbLKKK5ew7kGOyy1LZU+osNMMLEoTf6k0VO2NGHDE9okT67eo8LgUB7bdR2q3emp1gSThjJbFHBx0z3l1U2iAc30BDd9mAkmlsRZ1zg/v6v1MfraekK26yvssEijcJaPBpdrFxcmfx6bN+K2U4XfKTM3+6SlyeLC5IyLcuFELuCqLmKQdg/DNeObr13WjFX+9n8z3liL4z3ZDl6XHPaqp4x9x5ecdvikCQbZS1go4V//yoJPFwNoB6AdANAOQDsAoB2AdgBAOwDtAIB2ANoBaAcAtAPQDgBoB6AdANAOQDsAoB2AdgDaAQDtALQDANoBaAcAtAPQDgBoB6AdgHYAQDsA7QCAdgDaAQDtALQDQE7H98laB9UVyPgybmh3Ecj7LVA60FaUrz/Q3L8m/7WDtbMOMla92Fe9XtxWtZa9MG6TbkLyXS7bPRXT/RvyXzs77YTKqPWi2ipBR/HWk5JPLOokoiwf3Rjg2D75rfKiWGfIPdZat1iDPvd6/A7OVT6lCLRBlfeZrnPp7PXcL18r6+9fJ6Li9fuHHZ12MskYq545450VpaDyJk9LwGWWvbpmE5FJUZBMDUpBiYhSs0l9yO0NlJQ3yYrORPpO7BdtxuRMhNFT0+tILbftxeH1B4fXK104tztvauWLfgfHUjFLJG9m9zs4lu7N5qiurFZE4WiFn78rFeE1iEO/wztCDS/FRaQ/qGqP3gl9yX4HN4UlRQegaN4WhzahNFYoX/TYvK7ySlDs4uZCfDRcEgtCg2kp3lKNx0RZU7fH5u3vYyLuaoIyMp+IiKhksFBOMbIrLmhkw6PqoXya+PlkfEHsIy2vbsa2sZK9MG4nog2P33FzDznIEslLY1W/GnVDRP0MFyEiokLdlRbyBe+ok6hW7Okf0Ga2UorrTM5EBnZk5Z/OkPumLEQtcrHsOsrn6x4mvVNw2yPu8upmNJizBFycr5wJLkfnyBJwcWxPMb4M7S6ElvRqCc20YvZWXt1cp/HqqCfV0VaHs4hbMfZRLpcZtwaMS+IUzci6NIWYcrrmKWWCZI7UnrB81aKaw5mnezQ0wYX6VXO1ake8kQ27mQIfDdJMxMXOJ+PVhnBo12GDbHl178hMwrDoDLlvbudSc7lUw0FTaDhWLybuGsPjrCcXXyBnaGIosykPTnHV7FNM/J0hNxepm655bF7f4FE8IWZYZCAT3KpbgNf+DBaDJTbs5nydVqJ8aTXGj7hv98gVyM6QSxcXBtnj2MaAd2TrnmHi5kZiMWvzemk9tJZqtmJouvwUV5qnrUxlBitnbGZDWW/SiJO22kKhzA9pDkLLS2Kt/EmLxo6Rr7PTTrVRrNrVOwmjbkh9aCnMz0TcHFX4eXHMSlUHL0vAZaW7ih2W7aZiaQz96k04YaUiQ7HxQYeZ4HKRiDaWo2HleXPLUWlJMSdO48zbSeXobGTD4xSTyQrt2hSPYYgO1heIPPKDvVoiop4hu5EWcopdtwIfDeca7LDUtlT6iA4zwcSiNPmTRk/Z0oQNT2iTPLl6jwqDQ8otaEvr+zusm2PrlkeY210cp6daE0waymxRwMVN95RXN4kGNNMT3PRhJphYEmdd4/z84f3N/wAAIABJREFUrtbH6GvrCdmur7DDIo3CWT4aXFZElLD/EnHbqcLvlJmbfdLSZHFhcsZFuXAiF3BVFzHVtKvfihNG1dKePFrr1iJGNjzeYS/clZ3bAaTdw4NPmkC7iwYZ1ung08UA2gFoBwC0A9AOAGgHoB0A0A5AOwCgHYB2ANoBAO0AtAMA2gFoBwC0A9AOAGgHoB2AdgBAOwDtAIB2ANoBAO0AtAMA2gFoB6AdANAOQDsAoB3oUNCeDaDdmUB7NrS7oIRDeza0uwS6sD1bUaYjdlMtqBt2qseh3WXGXhe2Z9eKznxuTmjH87k5X0XRRdbgmoTOsc7m4tuz5aoxWT4aTNennSXg4nxVHb2HRVKJiLTrDNqoPZtCyajH5vXpCvPJ+MLkTMStV6bdjCmxOJtM1QbiDix86h7tuqg9m0waDfUwPodzYb/pU/YYhvp7ND73jGnzSPiz8Z0y7kO7x0D3tGcbWZemXKoUkuWx0MCRsttYmms6WR2VKnxsV+sd1VKFXy0P0VasOtyf0DUK7dp0kL3k9mz/KFM44Id0lF2LzU3ORBhl4SwV40Qe2xjt3isM6yi9GDKy4XFa2T/yGiyUS9Gkebq8E8Qg2wGoBtn8TmHC7KdU1jY2tLc+R/UrhhOWn0S5eKh/JuLmfA0Gu6VwYklhsC0TWlMeLPPxPHl1RESUXhTmjn6Hd2Srdik/FeJpYoeJiKhf21/eWUgfsG5rwEg0rF2920ml7WjPlslxme3ZcTKyXuWGIhGRNPSL61an8Efi6dWWykWiVHhTF56wK1uWoV270n7t2epo9Ds4VzmT0ehWlut2SYysd/AomUiJz22PH2K4EJ2yTQ3tzo0uas9ekobgCKMXpoChNJGRDQvLVdk59lGmwGem3FykttaxBFxcZKBjtovRng2Qdi2DT5pAu4sGGdbp4NPFANoBaAcAtAPQDgBoB6AdANAOQDsAoB2AdgDaAQDtALQDANoBaAcAtAPQDgBoB6AdgHYAQDsA7QCAdgDaAQDtALQDANoBaAegHQDQDkA7AKAdgHYAQDsA7QCQ0xZfmW0dVFcR40uxod1FIO+ZwJf/Q7vHmHBW/YiYbcVtVXvYC+M26SYkH7Q7T4TqpvWi2ipBR/HWU5NPVrkp4LF5vbQuP6LGyIZHD0KynqRGbXQ1xCrOWn967V7q0mzQKYOsVc9Y9cxZ7lmt51IXFlaPlPZWYmSt+VQpZkmbvxubrZ7kd3BT+2JDnLI5uIbfwU01PLgfxVSg4+d2Z0HoXT0l7VILZAk4jCvL8QWhn7MJ/YP17lbTTmpRF0rVl2mqr7ixTGS7KpZ8QjdcflC5W9qDdicZo/j3mTQb9hcXTruIIu3qVKbJmfAAUYWPl2+GHFoTaUxi/ToXYU4Kyy5gcmD414yWUa3urcxP0/u7XaLd7US04fE74ut6OqqX3GPzems3WgLDelMPF2Eoy6/kSTM9wUWIiJiI26xIMsWoLRu4hZLtXm2hXBjSUDZ/5JqgeCI2dzXmdtZB5ldHJ7+xkSCiP5j+7Hfurp7LCu/ytWtdr/oJFttHJ8ztqMLP72qne8qrm7HtUW5KasOuW1KoDZbSzsiGx4nIYtdRfpeGdES5eChHVwSHwfjpkQnBOSL6s9V3v2D9TO/1nuV8ruO1OzNCWzCRM+QeqzVRCw3VicVqzbA5eyjdwxly6eLKpag0Cywcp4jMsvG6lnZie7uRDQ+rdK8NsuJqt7tyTu6cwNfWv/87lqeP71ceMfM6fG43ORNh9Fk+OpuTHIqH+mcibm6Kj4bTqdlkyu/wjpx2GZNGQ8fVNUrDuV0D3bt8kF3f4xu69RepH3XDIKvaKJY4tZDd7+DYvvLqZsYwIUZONaLKqzxvZqQSc830BKeeximwjGiKG2lnyG02qYZp6vLlAjZQzjzIEuWWqH6XuBZC0tyOqIfxuTmfbElR2iOaNE+Xd4JEoQo/LwzBQtodm8O9mRhZvdCk+7Q7NdWao8on1dqiGE8szhHNLceIiHJRIqK0YhkhrHn9A9rVrSUiZ3VqyPQLlyIisvuIsnyqyWq3NrcjSVnQAteMb752WTNW+dv/zXhjLY73ZJF25wk+aQLtLmGhhH/9Kws+XQygHYB2AEA7AO0AgHYA2gEA7QC0AwDaAWgHoB0A0A5AOwCgHYB2AEA7AO0AgHYA2gFoBwC0A9AOAGgHoB0A0A5AOwCgHYB2ANoBAO0AtAMA2gFoBwC0A9AOADkdX+xpHVRXIOPLuKHdRSDvt0DpALR7jAln1Yv9devFbVVr2QvjNummzko+ZXeeug8S2l0+QmXUelFtlaCjeOupyXdK4Xsj6rpoPTavb1DT7HSx8NPIhscppuwUrWtntNh1RxvHMxF3rVyq2pBGdCjU9kG7dog9PWPVM2e5Z606rHEFcmlvJUbWmk+VYpa0+bux2epJfgc3tS92yDarYPQ7uKmGB/ejDf4gjEZzeWc2vTSHtOtahOrYU9IutUCWgMO4shxfIEvAZW12MVn5cV3aSW2iPYzP4VxYpqm+4sYyka1uhDUMUTlHZAm47NM9yrTruh69q6pdc2NKe/JQNBv2F099vRVpV1+BPDkTHiCq8PHyzZBDayKNSeypF9sZS3sroTU9O6gh8aHLq1IZOFG1OB5p1zbcTkQbHr8jvq6noxofhapPabIVGNabergIQ1l+JU+a6QkuQiR10Sp6kRWFn7XC9/lknHq1hXJhSEPZ/JFrguKJ2Fzd3M5j8w5VytW7a6YnuMiE7OIVHtq1Ea3rVT/BYvvohLkdVfj5Xe10j1SBnJpNphouKdQGS2knppTFrqP8Lg3piHLxUK7x8zFRIXkw5CKkXVdTbd52htxjeek1NrLhCW0ysTgnRJ3LnD2U7qGe4MtngYXjFJFZNl7X0o4EX41seFile22QzfLR8FrcY/Mi7a4AkzMRRp/lo7M5yaF4qH8m4uam+Gg4nZpNpvwO78hplzFpNHRcXaM0nNs10L3hBooE0q69UW0US5xaBO93cGxfeXUzY5iotq6LEVVe5Xkzw0UGhH0yzfQEp57GKbCMaIobaVV9fG3gbra3ciJIuy4fZIlyS1S/S5xWBM/2KDcl7ICIm7fikqK0RzRpni7vBIlC0h6HkHbH5nBvJkZW71meXfen3TXjm6913JO2DjLy92Gb8cZavPmbY6p8UlGMizO8pgimJjXWka3YbM4Zcunid8k7wfQrT1O8S7Gr9dVWu4owm0/Gyeb1UqEwyDR+Vt21dXdltQMYZB8efNIE2l00yLBOB58uBtAOQDsAoB2AdgBAOwDtAIB2ANoBAO0AtAPQDgBoB6AdANAOQDsAoB2AdgBAOwDtALQDANoBaAcAtAPQDgBoB6AdANAOQDsA7QCAdgDaAQDtQIeC9mwA7c4E2rOh3QUlXFe2Z0O7dqcb27MFlDVo0K4dY6+b2rNF58wmIpOy/OlMDVLQrg1pw/Zsm9c3qMny0WBaGa7jFOsu5wjt2W3Snh0jq09XmE/ETQ5vwFgdYSdnIsNHXVbX3g3adU17NlFKdGv5XsjNhfqjGwMcS5lgcglzu7aja9qzZSzF98Z8DEeq0RbadQFt156dVt9qYqSiWywpuol2as8WhCtVyqW9uu2byZlwL9Kuneia9mxBR+XMsptBe3Z7tWc33ItRLK6h3aVzaqo1p749W/56i+3Zc8sxIqJclIgorVhGCMnkH9Cubi0ROatTQ6E92x4hIrL7iLJ8qslqtza3kzdjN0jHbhxk0Z4NkHYtg0+aQLuLBhnW6eDTxQDaAWgHALQD0A4AaAegHQDQDkA7AKAdgHYA2gEA7QC0AwDaAWgHALQD0A4AaAegHYB2AEA7AO0AgHYA2gEA7QC0AwDaAWgHoB0A0A5AOwCgHehQ0J4NoN2ZQHs2tLughEN7NrS7BLq6PfvmRmJxbnImMrATVHfqWQIuK93t+G5ttGe3VXu2JeAyEx+dI6J0ZtVlD00uKdScNJsP1kM54Uz7dI/sJlmnCrRrV9qvPVswyXywEhI9S80m9SG3N1CqZZt/gJLLKZqciQwcrVargsSMdOmQdh1Dm7Rnh/LG8ARD6tRcCico5ObCBrGpdmp/MUyWwDDFk7kRlxmD7OXQNe3Zfoc1sxltNGNbCieW/A4u4jLulPU3+4QnE50lS4D0rJtjZYMstLsguqY9e245RpMzEbe+8WWlPkhyBmzFWVFWDLKdRju2ZwvTTeWaV52+LvN0D0Xc9iy/ksdKtiNpp/Zs2WRTSweZxrPJSbOQvrM5cQKAQfZy6Jr2bNlsUpu5m5I7XdhPKVbf4oI3k8Eg27GDbFu1ZztDbvPQ3ops/mcZ0TT8a4mGcpaA6yYG2cuhe9qzd7U+Rru6GQ2rtoIr/Hy69oiu8kpwOUVGNuxm+olIPsgS+VwsdciOMdqzAdKuZfBJE2h30SDDOh18uhhAOwDtAIB2ANoBAO0AtAMA2gFoBwC0A9AOQDsAoB2AdgBAOwDtAIB2ANoBAO0AtAPQDgBoB6AdANAOQDsAoB2AdgBAOwDtALQDANoBaAcAtAMdCtqzAbQ7E2jPhnYXlHBoz4Z2l0AXtmcrzqlWnKnvqK4+g3aXEXvd1p5N8i6UaukP+dycT1WOXatekXGYCTaqfoR2bUN7tWfLVWOyfDSYrk87S8DF+ao6eg+LndXSDu1OMeZy2rOTUY/N69MV5pPxhWqxrCztZkyJRbEgVLBQLKvFIHsZdE17NgkFoUIiNm1zJI9hqL9H43PPmDaPZNV7AlLnJ7R7zHRNezYZWZemXKoUkuWx0MCR8o/BEnCZhfUEq6NShY/tar2jWqrwq+Uh2qrWy7rM2zmkXXvTbu3ZGwNM4YAf0lF2LTY3ORNhVH8MxTiRxzZGu/cKwzpKL4aMbHicVvaPvAYL5VJSvyi0a3vaqT3bb+PjefLqZMsdIr/DO7JVGzf9VIiniR0W5qTa/vLOQvqAdVsDRqJh7erdJYJ2F0PXtGfPrcXJyHrFAJZdaoKLTJA0TVwgp/CGjKdXWyoXiVLhTV14wl7ghSJaaNcZg2xbtWcLLIUTS8IfhqucyWh0K8t1uyRG1jt4lEykhN27wh4/xHAhiio2n6Hd46N72rOlWWP1nCwfDQlvbwiuy7aC7aNMgc9MublIhZ9PRBfEmaiU0B0A2rMB0q5l8EkTaHfRIMM6HXy6GEA7AO0AgHYA2gEA7QC0AwDaAWgHALQD0A5AOwCgHYB2ADwaN/BPAB4rIx/1DFauE9Fez/3tGxVoBx47ox/1DH/UI/l3nWjrRgWDLHi8DFV6Gv4K7cDjXDo8aPwrtANYyQJoBwC0A9AOAGgHoB0A0A5AOwCgHYB2ANoBAO0AtAMA2oGOoy0+XYwGbGh3OaABG9pdUMK1aQN281Yx0A1pdz4N2CKWgMtuPmhYeVNfQSEglk80OkEsPBEQG7Dr2piqj2ulux1TbQjtJMnO1oBdq/6toSqHlWpGGjT+SrWFJBXfIO2u3Nzu4ak2bSpzrlYG/FAXU/fj1NJOKA2rNSNOcJFxfrXMTPfJTp/gIuMd3GV98VxaC895NOk0Crz6qDt9kG1xbqdsAZVOnhjKbGKQbfIqH/aq9yj6jtsi7R6tAVtUR5x19c9EBnaCy0tC/WvjMfT0qFPP7USDJ2+aSGOa8AZIVrY5OkQV2NWBg+yZG7DlmWfYFZotF+MOLuLSzScPZGkk1M9VFwckl6y8uhmbFftbnSG3mXipp1CVbZbAMGUPy/mte4Zx1pMTyxRd5XsZzRg0ujpzO5ERm9VQLpoYqRaWsodan0ObpSPx92o3od/BTamPVFuKJTtr1ymu7pGhKqzHZjUfrCc11hFaCu/OhCZpIe0MDR/FkkW7CxY9NB3/5tj22v/f3vmEptLv9/9znzwmxmj+TX6agFaOV/NDoQpzuWVK4WfdzH1gFm7dtlB+IBR8lu4vzPIMlBsoXZTuhNtNFlJwIy5Kpf1VMC2GxtSDGDhHe8zJSUyi8eZ5fosZx5lxTMyJ+WN8vzZPnNEx95zXeX//ONd3Tryk64vDVCmbKmX3L/p0WUhVvjzsKq1iunR4dEt0294vZVPtDpF912FxMYIY8BGRy9IrD9tmC2Ldl4xsf/2INcTMpt03N2BrWdZsnTS/YXd5OL1j4qwQv23vlwp5JeeiSWdtr1IgooRmWPdcHaaxjJjbQVa7zaFZYNpW1Z+tHnV9oHSvD4/0jwYBlqKoxNib7axYl5cj4TTrWb04TFcLhkiLBfxj9qXB7Gj3iAZsUke99EhuXV8c5iec28kTu24jVSpoLnoglg5iAV5i/Uf6/ZF8NZfXTgdv2/uIvQcy0/t2U0fZ4TNmJ/jmv+VXuG/3+u40uW+HD8z6IIs76rCBAgC0A9AOAGgHoB0A0A5AOwCgHYB2ANoBAO0AtAMA2gFoBwC0A9AOAGgHoB0A0A5AOwDtAIB2ANoBAO0AtAMA2gFoBwC0A9AOQDsAoB2AdgBAOwDtAIB2ANoBIDO1r8z2O4xVxPhSbPDk2hGRtmfi9X35P3gr2vkdjN+udBQed04N7WE/7ATUUzOcfN6ouNhAO8rrSju5uum4Y7RK1lE5O2ny6erX9dzXgD3squsfneT2aNiAHQvw3E1u0BLrS0Y8p2Wz0mwiIhqWs2sufn5TM/1V184G5bNq4baTE93M+bCUFjzlIOu3M3478/DXmbWua7oSiTTd68MSdu3LNR3X3Uaq0klGPKctSoSY88sJXB8tOa5kM/epSUSJkJ8+ZsVWOM1ufJC9l+vzbtv7pSzaPp91bvdwanvl2mjOxQJ83HY+ItkkA6LHc9XYc3KitdPo8xJrGZwQpPX2h6vVdw4LERErcLKmn4c2xwI8NzK8DhJU7TbuH53kTrcEzkrkFiQ3EZErFM58HtbnDZPvDfHH69tE9B9nn96GdvrA0+XcoNdVlW+BibNCfHSQHf5sS65TuUzJCLNMndNqLkU0MsgO8snJiVv3/Wr1QqpOsQDP03G6WiPyJSN+IspUshm9nem13vDh8hL131Tjondl/S99vyIi6b/+uX559oq0+7GUNT3+nhUmeLUyhUqE+M3Pub3lqLTyJVU5IJJ7XWUmKaG7Orxa5QLO1X77iJbIyYk7lCtPYUFtnNvph2bqNlIVSrOa1tr221l/yEWY8t/ve1aYVuHldLSbTK97Mm/tLCu2iKhQDAlSxLZfvho7AyN1+FPXEERE+eonLmLLlVvBiIdaxfKWwHnJ3Dslk2z3/mYui4VuRo6qMeyNSiv0VqsZQ2vOv/rlr9VM+bGUfc8Kf/ff/1b52noV2j2SzYB/rd9xMeoUiprdpXhoqUk9TaLcWUWssrCkLngzlx1pJUx9bVDZVm97zYf8e9i09L9ejxzWjvjdL+QdJLSTE90MvYk6Wr+D0TqnNe/xmfcqtDut5va8UbE/XFJwN4VUXTvIToDVI7FE3YZIlFQnZ0SxwLY25Jb7XyZYqdg5VuCoU2zTLp1ryrF7py0i52javcGV7PFF23TuNG5C9QLaGTaKDbt6E7KsWVI0v+HfkrqWJN/YjY8Ve/OyQHftjAiclajbSJUP5KG/eVYYaGRfW6BT07SjN76SfWMbKDqMVelO26ouyQYT9kvDkf7RpEuyKGdp79eJiGKLS6PDZbOtXaUO9nRMN35H0+7trmRfr3YPSrVxuxXpkQ2z64vD/EPndiZbM51iiYh8yfWlo4+FvHLx/tFJjcg5Zt9Ou484/IDk+uJQs3WiHL++aFCdmm90JftE/ML5+98+cnV979OmteoGs7cu6S4ap4zWmymkHe40Ac89yCLDwLeBu4sBtAPQDgBoB6AdANAOQDsAoB2AdgBAOwDtALQDANqBN8X3+CMAT4d8dx3SDmCQBdAOAGgHoB0A0A5AOwCgHYB2AEA7AO0AtAMA2gFoBwC0A9AOAGgHoB0A0A5AOwDtAIB24O3zKv4Pi36HsQIZX8YN7Z4Dbb8FSgeg3RMmnN+u9Occd04NrWU/7ATUU0g+zO2myW92dn+zs/tLjX+KkfZN9eyk13JyIhtNmB1PB3xEvmQkmiCKBfi0l8gblULhSa6qPJ+IKJyOcLHhmXDa9O3ArAyyfjvjtzOPuIAvGQnuUnu/VMgTJUJCpK+pzGsVi2t82nv8lWgzwEfoOF2nWGCpeXmgdSvusAweKVXeYC7mdt+K2kOnadq0BqWQXS7CGygVdBGRg4iCaa+dHBYXDSqTb9v75VxKvVrERgFeGlpIRIK03h5WeZuRCAnvLrNiHTrNi3aDtnS1v3o4OB6IdcpXc3miRCD6zmZ3UXu/XKQAH1daFcNpduNDuZj3RsXFRrpaI6dttX+VqRYzmiDkbnJinYjC3HjnIv0x/Z/g1Wo3ro35PSvcP59zM8vDx3a1WlNOKXHxMF2lZCS4dnb41eb5cLbEB8INS69JSy7SFLjXC+UQn3TW9uQqWCcn7lBOrovVomuebahZS+0snJs97e7XaxytYrqlzO3Wzg6/rgd3FzrFNnGa2EuEePqYFVu+5DpRvdEIOQ8rBQpEg06i5SW6ashuZSqf0mw03bWfX9aoVcut8XzAl6/qa2HV6mJZOMbOsVQsZTERnLGV7BRwciIb3F0gFxNcO8umTnoRxk5WjzRYZmYqub2WLxnx08dChmp7lWKeKH9Du1vhxIr9/KY2HKzb5LJ2PtSJiPLV44bNn3Te/d5YfMzn3M4bldZ7+yeH1KrlnZzoFiTqH51k91rhNOvhWIHrNork4axEROQWJPcgseqNo0iQI6XAXZnGLS4RWd55iepEVNsr14gotjax/VtX6coBfJoZ7QwbxSr3b9rVC6l6OM0GXe5gnKjZzqbrvmREkNydYikrKkLYIu6lcqmQUcZieZS0ry0Q3eq84R29YunTOzaaqN+dYXJ2ftIdkyeFYH5WssWTTr5VI29UYgSJ6R+dZFMtw/wvnGYFSX64EibvhsTYm+3s/iIfj3AkL2ndq42TXIaI2lEx4MsYZnUKS1xEiC/0j05ye61w2m1ISjBT2j3gowgTwpzbE3cHqdtIlQqmuxuctX90khVbg3GZUdcBubw3KkW4/9NnbtrZvZaSoGndGrlTLCmpubqw1FCvQwcfugLHCtxwnleDTJPzC+fvf/sib+x3MNqP/8fxu2oRn8nO9qqv/73jp++I6OK7n1qWP7x82uFOkzfP/+p/v3qr7Jas3n73M33/P5Y/vKR2yLB5YPWn7wwP/4eIcHcxeNo53M/mD6EdeAGgHYB2ANoBAO0AtAMA2gFoBwC0A9AOAGgHoB2AdgBAOwDtAIB2ANoBAO0AtAMA2gFoB6AdANAOQDsAoB2AdgBAOwDtAIB2ANoBaAcAtAPQDgBoB6AdAJPyKupQ/A5jjTG+UBvaPQfajgoUB0C7J0w4v31TybbOqaF57IedgHoKyQftpolc+3TcMVol66icnTT5fMlI0HN1mDapC1OL3Q1omznlArvcXuvut7j3OWBGBlm/nfHbmYe/zpeMBHcX9MccQYkNDh+qxcO6BmL15R6zy5o52m2kKgfk9XiujtXiZN1bm1wfzMLc7uEola+GnIsF+Ljt/EESJELCsHN2p71fyiqv1bfEJlaoXKmRNyqt9I50SRlOR2xv25I/Xt8mov84+wTt9KmjyzkmzgpxbQItMHFWiI8OskRElKlkM/cOoN7ou8uCSL7kOhXLrU3zpHybeFfW/9L3KyKS/uuf65dnb0S7H0tZ0+PvWWGCVyupkwjxm59ze8tRaeVLqnKgT6ADsfTYXuvEit1lFSSGmu3sHvmSZNe0ehLdvtlFj1yEKf8dvWeFaRVevrx2k+l1T+atnclNr4ViSJAitv3yFakDpdIMS0TUbGdFikqMfXBA7iSWf7bsugXJrT0yJFPJZiicDHT26qPLkTc7yIbWnH/1y1+rufBjKfueFf7uv/+t8rU189o9ks2Af63fcTGCNFiWNLtL8dBSk3q6BQFRIiS8Mx7hN4dzO3PhtEuQ3QWS2GCzffh1DsZWv4PROqc17/GZN/PanVZze96o2B8uKbibQqr+gAQazu3umuB4dhdUL33J9bc/yB5ftE3nP+MmRTOmnWGjWOVBZe7LmiVF8ykcqBdSdXXV3GjM2UoWGyjmXF/oN4qdtlX1Z6tHYpWFZ/PScKR/9LB9lv7RSTbd8iUjG1BntrV7UKqNi6K0ZqdDXjFcXxzmJ5vbxQJ83GEh6hRbxn2Z6wvlUCzAR/qHqUqNnJzIMstEpB1kieIRjrBjPDG/cP7+ty+4Mr/3adNasYOX+VvuLhqnjNabF0473GmCQfYFFkr4059bcHcxgHYA2gEA7QC0AwDaAWgHwD18jz8C8HTIn0kg7QAGWQDtAIB2ANoBAO0AtAMA2gFoBwC0A9AOQDsAoB2AdgBAOwDtAIB2ANoBAO0AtAPQDgBoB6AdANAOQDsAoB2AdgBAO/C6mPmv3vE7jBXI+DJuaPccaPstUDoA7Z4w4fz2TSXbOqeG1rIfdgLqKSQftJsmcmXUccdolayjcva+5EuEhEhfV1aWCAnvLrNiXflZKXMnIqJmt+OiL2qPFEdKg5QGXX28nnCa9bhMfgVtZR60m5XYszN+O/PNL89UshQSpIhTrndXLKyrZxvv2I0PpULGGxUXG2K1Rt6oFArv97cj/cNUtaZrjVfR1ccTqd3x2hL5oaYemkvm9ts8tcYwcVaIyz9aZWlMQmgQfva4lYiCEhtstrNiuTaac7EAH7ed76P5DtqNUNsra4ZCb1RcbJgNjkpd8fWF3HY8+kyNvrqcY+KsENcm3IJGbu0gC+1mjnFNzu9ZYUrv0Ckqg+x9z5FrQj/n9paj0oo8BdTWGx+IpQOE3BvR7pv1GnTIatHPybqNVEWbds40G3QZntltpCodNfPWzrJii4gKxZAgRWz75Svl6U5OdDPL6tKknRVJKb0lIiK1Cx7avXXy1VzeMM/rj65Mw5q0a4mlotkvX7UbAAAgAElEQVS8zUdEmwH/Wr/jYgSJUZe9S/HQUpN6GonvqlKeN/DhGMUC/t1+I3W5kfbevxAJ2npHV0tBp+7oaTUnXtL1xWGqlE2VsvsXfbospCpf8Gf7NtPOsFGs8oAieG80bjvfLx8Q0YeQkPYqm3bazEsz9mUKSiF76nLDc9VIV+3pCBdrGReqy5olRRO71BhkxxBOsx5Xt5EqK2NrppJNhASJVZcIHheRi6Viu7O62EjfeKT13n65RkTiWVSKcKTfIrm+0G8UO22r6s9Wj8QqW3TNS8OR/hG0my0ekGp6EiGBs3aKpayoP56pZDMUTrOC1G2k5B0TIvJGIxaP6KBiaeBZvbC/yMdD4byypCCqF9KaBJVXDNcXh3nM7cz4hfP3v525X9rvYLQf/4/jd9UiPpNF2k0T3GkC7Z4bZBg2UACAdgDaAQDtALQD0A4AaAegHQDQDkA7AKAdgHYAQDsA7QC0AwDaAWgHALQD0A4AaAegHQDQDkA7AO3wRwCgHYB2AEA7AO0AgHYA2gGgZeFnWvhZd+R7/KGAp+MXRNv971duvyOiy4WfPln+8DPSDjw1zoFzRLRy+52z/z0GWfDk2H/6zvThqxhk0YD9ZgfZn80fvpa5HRqw54oX0w4N2NDuZXhsA7a+Qm7QGedLRjx0teShY7mcRCk+HHbJ+ZIRz2lZUxdrvI6B0Sq6QbFdHf7MoHYDyR7RgN1tpCqUjtiK5VYw4lcPn1aPKeJPOmt7LcpUPqXZaKJ1Zze6Uk4y6pMvqbnsgNpe2Z5m+eT13DUjvh3tHoXVI4U6TSIuEnQtaFuUtC3FB+IJJ4bCGaVA0b62QKdmF0uEgrsLRMOixP7RybEab8ZydiKXW5DcgwcmnezgrWo3TLtGMOJf2+Ilt4WIiBW4YYYRtYrpe2LJlowIuwtDe2IBnqfjvRYld4YSxwI8d5PTja1ja7fB69buUQ3YVo/EEhHFWYaof/QxJ7bCaXbjQ0keUn2KTF1DV+zSppNIJ+LVXrmozPPkavVuI1WpyXWxKvmv5/xWmGh4qcTKUuMznJtB7b69YF3JsHA6YivqBjj7Oy9RfZBS3qi0os2nDRdZVtd81KqZp10pmycib1RiBbrtNIm+Dt+x1djxJ50HypTOyUUs5zlM7+ZrkPUOq8/jrBCXl5zLG67bfnPRR2QeQokVe7PdoHVnjGp5Y9r5kpFgXE476hRL2YxxSVHb++gUd+Qy2XDavdo4yWE+N2fa1QupujHtEiF78+zw67onQbWMYbdlh3Llq3fWzofKAa3wQSflW6NL1IGsTl9sXMQuRyXVckTdjGr3zQ3YsQAfd1g0aUfNi/aqtVOu1JqLfj7gy6gzfatHcneKpYIrJKxeHGaI6PP5ILRUwmnW4yIiomY7K9Zr98WYZW0Z/sxf2uWrn7jIBvV7xcul+ErvyMLsOphmO5shouonjlX27WKLS/KSIhESOGqkZBdbxdwaH1cbsAdLE2VnZLiHQtp260RI4KxE3UaqVJAfSuxIaTaYCe0e0YDtobPshxU+eJ1L1Ym8UWnly2B340Bsb0hynlVz8oYIR7r1bL6aowAfD4Xzn0eXuiry3E7Zt2u2s6nK8Fymks0QxQK8xAaxb/cgXqw9Gw3Y84C/u2g4cmy9eeG0w50mGGSfG2TYPIO7iwG0A9AOAGgHoB0A0A5AOwCgHYB2AEA7AO0AtAMA2gFoBwC0A9AOAGgHoB0A0A5AOwDtAIB2ANoBAO0AtAMA2gFoBwC0A9AOQDsAoB2AdgBAOwDtAIB2ANoBoGVqX5ntdxiriPGl2ODJtSMibc8EvvwfPJV2fgfjt28q2dY5NbSH/bATUE8h+cA0006ubjruGK2SdVTOTpp8vmQk6LkyrfAa9tDp6RSVxmK555OGD8mXjATXzrKDOihd8Xqz23FZ7fpLoTFx1gZZv53x25mHv06ngoIjKLHB4UO1y8uk1MuXjHiGXjJ2IuLkunYiuu1fL9CyWlp3294vZ/ecnLh1la4ckDcqUSNVORj0sBt6Y8HszO0ejtrfqsu5WICP284f1ByXCHlc3UbqckNa7+2XixTg445eufTpHeuhthp4eqweiZWtldXsH0GHMfyRbb3/8+3H64u3oZ0+8HQ5x8RZIa5NuAVm0GutH2SJiChz2eEYj2QlIntcaYG3cKydiIgRJEauiNW/tIu0mwjvyvqfO31bS7Z/bPxn/fLsFWn3Yylrevy9YsDdKPOzRIjf/JzbW45KK19SlQO5FnvwnAOxdHD3Ve7odY0FeE5tgyVGYrePLnpIuwlXjX+25f2HDyUi+uvdP/2nj0dTWR1OR7vJ9Lon89bOsmKLiArFkCBFbPvlK+WkkxPdjNpU3WxnRYpKjF23FKgX0hROs8LIsqN/dJLbq+byRETZjHZuh7S7j9Ca89ebbtk5Ivqbo3/5v/4/WfxuofK19Sq0eySbAf9av6PtrG52l+KhpSb1tAMiESVCwjvjEX5zdP0xnPNpzmqpF1Lms0wwzDmtczJ/e/yvf+H71c1Pt4/MvFeh3Wk1t+eNiv3hkoK7KaTq2kF2Mkznf24+ScadkViAjzssg0eK7s1xi4+55PiiberW39f+/bUMsoaNYpUHFbIva5YUzW/7t2TWnG4MPKtHYrePTnKp6mDad5ODbXO1gXLnmsBpWzXZ7KDmpeHIhEsBZcncbGfTkOxtaPegVKMxk630cMmurBiuLw7zD5rbmW+yyF5qZm/6NYo6yJqGJXgKfuH8/W8fM+vUfvw/jt9Vi/hMdk7XJd1F45TRejOFtMOdJuC5B1lkGPg2cHcxgHYA2gEA7QC0AwDaAWgHALQD0A4AaAegHYB2AEA7AO0AgHYA2gEA7QC0AwDaAWgHoB0A0A5AOwCgHYB2AEA7AO0AgHYA2gFoBwC0A9AOAGgHoB0A0A5AOwC0vIo6FL/DWIGML+OGds+Btt8CpQPQ7gkTzm9X+nOOO6eG1rIfdgLqKSQftJsmcmXUccdolayjcvbO5IsFeJ6O09UaaYtiGZJ7kY141YLkO9DVx+sJp1mPy+QlHfO3A695kPXbGb+d+bbXuizU+FwjIlpeon6LiKheSNXDaZZPnhjLPBMr9uZlwdQzpTVeRVcfr+kiMykl8yUjHmg0q3O7byL8znJebBERxRaXzm/UfBo2vA+K2gdYh03JCt1GqpwdzblYgI/bztF8B+1GcNpWdZWKI0rdtvfL2dTAv0jfdOjUB54u55g4K8S1CWfe4NjBCmj2tPuxlDU9/p4V7nllq5huDWZdEVvxjmTyRjlqpKo1eUw8LY9OxZT5WSLEb37O7S2rs0Btg/cwRMHMa3e/XvcRC2y7FiyGHBo2sDs5kbET2dUiZGIFTh1hhysMXzISXDvLii0iKhRDghSx7ZevBsmqq6BttrMiKaW3RETUPxqZSoK3OrdTdAnaekcXPfpa2FPDj93+ej342c3Qbf/66jhtSDtvVFoZXmUz4F/rd1zMcKRudpfioaUm9Ujv6D1VymACZv7DsVjA77lq7FW/rO1wMWUa51m9OJYVTIQ81M7mru6/zmk1J17S9cVhqpRNlbL7F326LKQqX6DI20w7w0axykRF8E6Od/TKpRoRiR85kRXiRNcXw6VDppIlolhg0l9mWbOkaGKXGoOs6QZK2r3aOMllBoPpMvWvby3LDn/SWbtrpuVVpmXXFw3DGa2yymJ5uPniUWeHzUvDkf4RVJot7SZKNTMSIQ+1D2lHkNzyUjQrDhcHguQezr3y1ZxukVsvpOpmV6wX0iZqHuYxt5s2v3D+/rcv8sZ+B6P9+H8cv6sW8Zns7OLvLhqOHFtvXjjtcKcJBtnnBhmGDRQAoB2AdgBAOwDtAIB2ANoBAO0AtAPQDgBoB6AdANAOQDsAoB2AdgBAOwDtAIB2ANoBaAcAtAPQDgBoB2aL7/FHAJ4O+asnkHYAgyyAdgBAOwDtAIB2ANoBAO3ALID2bDCv2hHas6HdsyUc2rOh3Qvw+PZsDeE0u/FhTIu10psoF6R4tRV1o8XXaM+ej0H2Me3Z9xIL8HGHhYjIPShIuVRrTOTia7Rnz/Hc7onIV3N5NQidnLg1+pTaXrk2mnNoz4Z2jwy87dWL4wwRLS8t0xWRtitMLr5Ge/b8afft7dlG7JzaTzwYEF1KV7s9zQouoma7QBTVD7K6+Rnas+dFu8e3Z981ta9k5SOyMbEAL9JxqlLTD6/DxQTaszHIToFESOCshmP65UK3kap0CO3Z0G6KZAZpJ8vxjmjVQqQUuA9zjohOq7k9b1TsD5cU3E0hVdcOsuANafeo9uyHZF6znS0u8nz/OEd+iQ0221lxpFUW7dlIu2kKl6rIq1p1V4USIUFih4OsDNqz50W7R7RnG+dtLu1KVpl7ZTP3j78+5b9oz34u0J4N5iztcKcJtHtukGHzDO4uBtAOQDsAoB2AdgBAOwDtAIB2ANoBAO0AtAPQDgBoB6AdANAOQDsAoB2AdgBAOwDtALQDANoBaAcAtAPQDgBoB6AdANAOQDsA7QCAdgDaAQDtwIyC9mwwr9oR2rOh3bMlHNqzod0L8Mj2bLM+MT3a3gi0Z0M7vWTf2J6d0VWdmJe2oz0b2r0AaM+Gdi8D2rOhnQnTa89eikSEiH5alkB7NrSbkl5jaXw8pJ2gFHGq+ZRBeza0e2J6p61aplWLBfg4ywdPcnsttGdDu+dcRjg5cYeLtYpoz4Z25jxJe3armNYMeWjPhnbPCtqzoR1NP9XuI4P27FcJ2rPBnKUd7jSBds8NMmyewd3FANoBaAcAtAPQDgBoB6AdANAOQDsAoB2AdgDaAQDtALQDANoBaAcAtAPQDgBoB6AdgHYAQDsA7QCAdgDaAQDtALQDANoBaAegHQDQDkA7AKAdgHYAQDsA7QDQMrWvzPY7jFXE+FJs8OTaEZG2ZwJf/g+eSju/g/Hblf6Z486poT3sh52AegrJB6aZdnJ103HHaJWso3J20uTT1abrCadZj8vkJUr98Oh11s5MmuzkWuKipoo9ERLeXZo+E7z6QdZvZ/x25uGv07Slqzj0fa9qZ7q2PH348kH9tVdbKkxERJpmWJKLh83cynxui+5ool7IwIUZnds9HLW/WpdzsQAft52PSHYPxnJEDbEAz40ciTss6kOOFThzs8GT8Kiqu2nU1ZkF3mjUPWyQpViA58nYVax5I6VjPRESInJvsTcqLjbGWQteadr9WMqaHn/PChO8WlEnEeI3P+f2lqPSypdU5UCehw2ecyCWDu65jHGc1RYSZ8V6ba9cI29UWu/JKscCvOIchdPrvVwZzs2adpPpdc8kb+0sK7aIqFAMCVLEtl++Uk46OdHNLGtnaaQ1TIku7TirTTvtCJtYsdOCPc4KcZ2anWKpgLF1fuZ2CpsB/1q/49IsAprdpXhoqUk95fFkFcLLuuXISP26N8pRp3nb06xkfcmInz4WMubjMnjT2p1Wc3veqNgfZhV3U0jVtYPsw1YVpmmXWKFi5cu7wTVjAT7uIDkpYwE+bvmUqsC5mdLOsFGs8qBCdm1WNb9pd/nutMtUCkTh9GCBsnpxmCrVhj/DuXlLO/MdEKdtVf3Z6pFYZYuueWk40j+aLO00yAsUXzIi7C70j04Ov+4EpYgTuyczpt2DUs2ceiE9sia9vjjMTz63015BQ76aG5UpERI4a//oJJtqERFRq0beqBThCOY9Cy++bweQdg8Hd5qA59YOGQa+DdxdDKAdgHYAQDsA7QCAdgDaAQDtALQDANoBaAegHQDQDkA7AKAdgHYAQDsA7QCAdgDaAWgHALQD0A4AaAegHQDQDkA7AKAdgHYA2gEA7QC0AwDaAWgHALQD0A4AaAegHYB2ADwDU+sc8zsYwxG0VoAn146ItEVQaOcBT6Wd38H47UrR3HHn1FDv+cNOQD2F5APTTDu5W/G4Y7RK1lE5O3HyxQJ83HY+tmDTyYnupXKpkDE9641KDBWHZwdF8PXhw90F5Vyz23FZ7frXD8vfwVPz8g2LiZDAWce/uNsokueuJxDRbXu/fMWxHpfuYP96wbKse04x7+TErat05YC8UWnlS6pyEAvw3E1OrMvt7dBuBud234oaM+P+7g8yREThNLv9dUwgJUKCq9tIXW5I6739cpECfNzRK5c+vWM91FYDT8+wCFmQGNLWIQMDf7y+TUT/cfbpLWlHtMyJLKMkk1uQ3OqJznDQ9G64uudfd7RnNc+57HCMR7ISkT3OCkREZOFYOxERI0gMNUfl6zaMaQdMJy8r63/p+xURSf/1z/XLs1ek3Y+lrOnx94oB93FdTJcoERLeXY5JJvIl15eOPhZ0UeeNSoy92Va8NHa+66eM3HA0ZyR2++iih7SbfB4l//2+Z4VpNVJPR7tJ9brr31SUo0aqTkThdMRW1K8qYgH/7kKv2BpZfJQKytPqhTSF06zgMh3Bld72bEY7t0Pa3UdozflXv/y1mik/lrLvWeHv/vvfKl9br0K7x5NYsZPVPogfirNCXB1AnRzvsBD1NgO85LBoXsQoT5OXC9ofhnM+ftP0/eqFlO5xba9cg2eGnNM6pzXv8Zn34tr5Ni290xZlWtnBxocx7RJbq42Txpp747SaS2nHzZuccUReGIioxc0nybgQiQX4+NBgeZA1m//NMccXbdO507gJ1QtoZ9goVpH37e7Evka9U2OM0dCebiNVyRGF0+4Jfo+RtDMJPKtHYrePTnKp6nh9wdveQIkFtlevjjPVomYH2GRuN5VYlbeLm+1sGpK9De0mSDVzFYK2XvmBk6rBgrR/dDJyznSQVZaomtmbkxPdzHAneTDImoYleApe/lMKgLR7MLjTBDy3dsgw8G3g7mIA7QC0AwDaAWgHALQD0A4AaAegHQDQDkA7AO0AgHYA2gEA7QC0AwDaAWgHALQD0A5AOwCgHYB2AEA7AO0AgHYA2gEA7QC0A9AOAGgHoB0A0A5AOwCgHYB2AGh5FZ1jfgdjOIIv44Z2z4G23wKlA9DuCRPOb1fKwI47p4bWsh92AuopJB/mdtPkNzu7v9nZ/aXGP8VI+6Z6dvKrxQK8FOFi4047OZGNJia5kDcqBnyjL08PD4bTE14KjOFR5U+PTLvHF0cN+sfG0G0UyXPXE4jotr1/thRn7Hc8Re7lVsu99aWgCigFncm53bfSPzqRu2J9yYifPhp7Y4kOMko+bX89GT2rkK+rHvOb/Z6HeueWK7FyoH1OptJIR7jYNfG28/2Sodyb56DSPGlHtMyJ7KAu0S1Iw9rZTrFUUPpCvRuu7vnXHe1Z43Pk4Gy2syJFxcWWeOmRWIG6jdRQvgOxHE6zG2W1KR7Mrnbj2pjfs8JEr78upkukjoBm+JLrS0cfC7qo80Ylxt5sFzL6kdrFCBIRUVCSH1s9Euuh7vWRZXl3ga4vDtOlg5i2dPm2vV8uuiwWuoFLM6XdpHrduQjgqJGqk2kFcizg313oFVu6MTFuO98fhFamks2Ydyf7khHPaVmJw1iA540zuXA6YoNDcznIEiVW7GS1S6xHfjhoMu4US4WMk+MdFqLeprEXflB4rFYXm1cgd0y3EF3MsPlYnmJ+vYZL86Kdb9PSO21RppXNqFsb+tBKbK02Thpr7o3Tai6lXQHc5Iwjskl1ti8Z8Zi+MdJu5rUzbBSrTLBpZ1+j3qkxxmgYWt1GqpIjCqfdE/wek6VdIsCZpR2Ym7SLBbZXr44z1WJmeMx0ijYJB2Lp4P5FsyP4rp0tLvL6Xbpw2tr70IJLM6Xdgz6K0I6AQVuvXK49bBaoLFr7RyejB8fTbaQqBy4LHZ1k91pElMsbXthtiFDpIcz2pxQAafdgcKcJtHtukGHzDO4uBtAOQDsAoB2AdgBAOwDtAIB2ANoBAO0AtAPQDgBoB6AdANAOQDsAoB2AdgBAOwDtALQDANoBaAcAtAPQDgBoB6AdANAOQDsA7QCAdgDaAQDtwIyC9mwwr9oR2rOh3bMlHNqzod0LIDdSHHeMVqnt2UR0fHfyeaPSem+/XCSTamFNsaf2+QyZHNegFOGN61RxcqJ7qXznFcC9zH4vhTcqrXxJVQwdOuE0u/GhZOztNEFu5pxKC/e3tP8g7WYPxa3UPU9TG7bJ0NWpkphSCzeYB+2mypRauMFsaPfY9uwHY+dYQR3dry8O09Ua0RRauMEsafdkeo1jfDI9roUbYJA1oltYDNJuGHXyc6bSwg2gndqwTVukL4El8kbFRd1zptPCDWZCu0e0Z080k1uj3iGR677nTK2FGyDt5IbtPFFC27Q+XE8MnzOlFm4wI9pNKdVG5nDdhki+pKZhe8wgO7UWbjA5aM8Gc5Z2uNME2j03yLB5BncXA2gHoB0A0A5AOwCgHYB2AEA7AO0AgHYA2gFoBwC0A9AOAGgHoB0A0A5AOwCgHYB2ANoBAO0AtAMA2gFoBwC0A9AOAGgHoB2AdgBAOwDtAIB2YEZBezaYV+0I7dnQ7tkSDu3Z0O4FmEJ7tpMTt67SlYNYgOfpOF2tmbUa+5KR4O7C6IvNO++m1J497FE2QftLOjlxh3JzVr3y8oOs38747cwTv8moYb5kxKM+GGnYZobNT2TSnq2tBlV4SNVdYsXevCwoD5aX6Koxb3U/M1z+NHCFkdiNo4s7E0XfITt0cfjzc7Znh99Z2sW6NoODEhuUfzJWBUG710amks1oBtldR1Big9e3feoTeaPSem+/fDBh2hE9X3t2LLDtonOi2l65NrflZm+nPVsph/VGJcYjUSNVPtCNniZpR8QK3G17v1wkeor2bH3EKqNwmHNY6JZcmkJH3YA+H720s9+ebfUYB9luQ11SZCrZjDZRvFFxsZGu1gyDaWLg0FTbs00iMBbYXu12ri3UrOZS5EtGPKfleSx8n/25XbeRqhzEArznjqcuaJcI6kSqfzQy03/q9myXpVf+3IvsKHG4tmDf1cXwAwZraPeyc7vxWxhqYqlOGNJuMHo+W3t2plIgJxcZLFPE0oHuXxF9ySDtnodptmd7o+L6EvXlDTbbqrL29Lh086fhspHcfJJye60Xas9W5oVZse5LRoKeq8NUtUbQbrZYdgSl2/b+GcVXlP2w5f6XPB3kNYmiSTv9fOtF2rPrhVTdl4wIEjNYD2Fu92x8c3t2LMDHHZbrixYRuSyWwY5XmGM98vys2W4kI8LI5xOatCOi25/+QFf/bxrt2SN7zuQyLJ81a50B8jYKJUKCFLKPnH2zoD0bzFna4U4TaPfcIMPmGdxdDKAdgHYAQDsA7QCAdgDaAQDtALQDANoBaAegHQDQDkA7AKAdgHYAQDsA7QCAdgDaAWgHALQD0A4AaAegHQDQDkA7AKAdgHYA2gEA7QC0AwDagRkF7dlgXrUjtGdDu2dLOLRnY273AvxmZ/c3O7u/1PinGDloz76/ssLJiREupjkQC/BiwGd4VizAS6Gw6fNHiQV46Y7nODmRjSZMT3mjkv5UIiQo7zsOb3T0t0XaPUvsPaI9O7a2SlfHeaJhabvmr1yp6HRyvIOOTg6IiFrF8pbAeSmvLwqbUnt2IXXNiWx082Jpd9gj5VG78+atamcG5nbfhC9osywvBCU2eH1xmCO/GKAcEZE9GRHWzpRSnrSbWSba1TYTWwVp4Pmgu2dK7dmtYro1TM245dO9xTrLFvswR3coNx+VxrOsndczrIdzcqLbskzBOBGRZ5eIGCFN2Q8rHpc+ZhIhfvOzmTePbc9ubEaCnivljRIhIdI/TFVqyuC73pMrHuXCqmH43RBZt5POgz3iRPdq4yQ3JzXaL1/+dHd79h3lT4kQH7FYlheIqH/UPvesXKU10TJs3fRGJcY+5rdQlFJdvKc9ezQIhy2Jg8GaGvv97bi+rFEeqVOjvx5FxfWl5QXL/DTJvpa0++b27Ewll1EHJicnMsNZ1GAApdFJ1di0oym0Z2cqciPtQd7s4mkvDYT2BW29D1UiL9HVpyPbNn2crw7t2W/PJoqzAt/tmMSJOn469K2KmjFUZ+Tj27O9UWnlS6pyoMi9HBUXG+mvTnHrKl0piBqDPVfHe4PE3ft4Lu5wsVYxD+1eP0p7tpp27jFpVy+k7im4nlp7dmxxqXl5QOTbtNy16cM7euVSTbsQya3x8QhH5Xkx7w21Z49Lu/Fzu0HUTas92xe00devRGRfW+h9aBF5tWfDaXbjQ+nLOzdz3s4ahtR8NecKCfNj3ltozw6GBK5vXHa4LBa6obs2zLxRcVEWdErt2U6nZ6FXblEi5HF1G+LoE257/zvksV4cpuvDdNSGN4WEeCicn4My4xluzyYiWl5aXrCvnWXFa07cUkPF4yIi6h99HjO3G6adMrsvT6M9O7a2utz9RCGBI31Lduvq3O2RWDk1iyNXqJFxRYINlKffQLkbtGcj7aYM7jSBds8NMmyewd3FANoBaAcAtAPQDgBoB6AdANAOQDsAoB2AdgDaAQDtALQDANoBaAcAtAPQDgBoB6AdgHYAQDsA7QCAdgDaAQDtALQDANoBaAegHQDQDkA7AKAdmFHQng3mVTtCeza0e7aEQ3s2tHsB5EaK447RKrU9m4iOJ04+pXhuXIeJkxPdS+WxLYa69sQ7exYHeKPiYsPYsuLkRPegHVTHmAJF04tAu+eIvUe0Z0+p9bqYdzo9dN7Y4pOUO1zjOaum6ljtsFMbpLqNVOUgsbLU+Gymi76DauC0Bwn3Gud238p0Wq/l8vdTy+q7LT5uVdtdw2nWQ2fFPGn68pxy3U/4ndXi0rYdm9g2yb8TItI3BE12HWj30jy29bqQoTDnsNAFEdHXzzmxJWsqSNQ/OsmamhoLbK9eKMXdE43IA4z1ThhkX4q727Pv57qYLt3Xer2+dPSxYNZ6XcjIDt325cNrW7zkthD1j04a5Pbsyh4bE8gWtFmWyRmjWp58m5b+12vNSauxX1TxGyPrq9Lum9uztQ49pvXaReflq9UIDdMuFuJkuuYAAAtWSURBVODj7u2jk6xIvlirlh9ZK3guGke2DRcRkX2NzrUXv29u50tGgrsLYwZZeR4J7WaCx7deU4AfHA+nWc/qxWGqVIsFeMlBR1TLt7SLD07cukpXD2IBng/4mrS9enX8EFFqe8M2R7lhdr7q2t+AdtNrvdYsQcTSATk5kQ3SxWGqRMkIn6Tcnnq+VUy3iIjy1U8cG4zrmzkn+Z2TET99PKYdz2m5ILajUiickdNxnuZ5M92ePa3Wa3W+n1MGQWrvl7J5b1Ri7c12VmwROTWTwvXecCi8PT9sPeR/rdPpofNci4I7RERULxRDQtp78GFFeHeZLVv4pLO214J2r5iptV6PDoLeqMQK8W4jVSoMzywwcVaIDwZlyWFptrMpikosH9Ruzdy5pJB3avJEQc3alsiXjPS/XlPm+lzc4WKttz+9m9327Km1XhtWJxJjJ4NwRLS8tKzO7ViBLg5TJfmtC6m6LxkRpK3BSuLOJUW+mpOVOu0HdXvX3UaqRUTKCP7mQXs2mLO0w50m0O65QYbNM7i7GEA7AO0AgHYA2gEA7QC0AwDaAWgHALQD0A5AOwCgHYB2AEA7AO0AgHYA2gEA7QC0A9AOAGgHoB0A0A5AOwCgHYB2AEA7AO0AtAMA2gFoBwC0A9AOAGgHoB0AWqb2ldl+h7GKGF+KDZ5cOyLS9kzgy//BU2nndzB++6aSbZ1TQ3vYDzsB9RSSD0wz7eTqpuOO0SpZR+XspMnnS0aCnqtDs5bBcJr1uExeoqnIHhaOjT5Z7XY3trc/qPsavK5B1m9n/Hbm4a8b7fQlcmhqfUnT7GtS8autB9ZyIJYOTN8vFth2kcU16Ha/7nbISstWQWL07wVmaG73cNROX13OKe3WDzBgqG+cFfiLQ/NWVifHO3rFdi8yqG1NhPjNk+zpFr/5ObfXggxj+SPbev/n24/XF29DO33g6XJu2KKpyLfADItitYOsqq+TE3coN17WxNZq4ySXaVEzEE06a6dbAmdp77co3zpORqKJ1jy2WE+Cd2X9z52+rSXbPzb+s3559oq0+7GUNT3+nhUmeLUyP0uE+M3Pub3lqLTyJVU5kOdq946bwwF0eYloiWd5rksuq8V4+ra9X87JYuVvKO4WqNtInW0obbDlGvQat2r8sy3vP3woEdFf7/7pP308msrqcDraTabXPZm3dpYVW0RUKIYEKWLbL1+pg6PoZpYHT222syJFJcauXy6EuRU6X+h9aFNksZGq1IhMatBjAT7usCgXqRMRpa450S1IbnXNAYaE1py/3nTLzhHR3xz9y//1/8nidwuVr61Xod0j2Qz41/odFzOY2hM1u0vx0FKTesrjQTdwIiS8Mx7hN4ligY2vn7+s7dia9WJaXZ8O1qqR/mG6WkuEBM7S3i8VXSGB07wX3bb3y1ccq6kiBkR+B6N1TuZvj//1L3y/uvnp9pGZ9yq0O63m9rxRsT9cUnA3hVRdO8jeg4t6hy3idpR0jFjauTqRl4go87kdcXsSVMtUssrsTf1BQ74E4XQcX7RN3fr72r+/lkHWsFGs8qBC9mXNkqL5wH9LmWqRKMwpSwfm/Cw7XFi0iuUtIRLwZao1zd6edscunGY3PpSwpJiXDRQd14aND6dtVf3Z6pFYZYuueWk40tcp741ylva+fvs387kd2XHGqJanA/EjJ4bC+cpB5nNb3OFi9SsOzs2odg9KNXPqhbRGHXnFcH1xmJ9sbqe9TqpOsQAvKUuHmhx46dbwskSMKnGcZYjIxQrcqPfgyfiF8/e/fcysU/vx/zh+Vy3iM1kwzbTDnSbgubVDhoFvA3cXA2gHoB0A0A5AOwCgHYB2AEA7AO0AgHYA2gFoBwC0A9AOAGgHoB0A0A5AOwCgHYB2ANoBAO0AtAMA2gFoBwC0A9AOAGgHoB2AdgBAOwDtAIB2ANoBAO0AtANAy6uoQ/E7jBXI+DJuaPccaPstUDoA7Z4w4fx2pT/nuHNqaC37YSegnkLyQbtpIldGHXeMVsk6KmfvST61ui6cZj0u3Sm1IjacZre/aupiNSV3A7xRiaHisHls0G9bHz5UKr6Jmt2Oy2on8/cCMzLI+u2M3848+jJj67VjgW0XWVxuQXITEV13O2SlZeugT1Yuk2XsRMSxgjLS3/avF2iZ0T4nu+fkxK2rdOWAvFGJGqnKQSzAczc5se5LRvwwaSbndg9nmEBxVuDHtdQ5Od7RK7Z7kUGNdiLEb55kT7f4zc9KPiVCgqvbSF1uSOu9/XKRAnzc0SuXPr1jPdTWh6LKsN9RVrN/BJXmYwOltlfOpk7a17ft/VJ2XDNiYmu1cVLI1As58iSdlAgJnOX8sEWZyjHtRBNERJS57JDVIzF2WmDirBB3WIjsHOtxEbkYQWKFtHfkut1GqpTdv+g329lU6fDoFiLNWtr9WMqaHn/PCve+Nra8RLTEszzXJZfVYjx9294v5+TpWv6G4m6Buo3U2YbE8sGT3F55aOodlZ6xAM8RJUICZyUiRmK3jy56SLtH8qhiz0euZB9dChpOhzbISh/apI6h5I2K6s8Db+JKt+xgxHRyoptZ1q0DRlckIwsF7dxu5YtxbvcRS4q5mNtRLLDx9fOXtR1bs15Mq+vTwVo10j9MV2uJkMBZ2vuloiskcOoSQV1JsIK0pdQh0217v1zMawdoQ0GySr2QMg73KD+eG+1c1DtsEbejRFHE0s7VibxEcku725OgWqaSVfZE1B805LWLX3liZ3iGm0+SMcbU+NQMspooBTOhnWGjWOXeIvhMtUgU5pSlA3N+lh1mVatY3hIiAV+mWtPs7Wl37MJpduPDcKPOJO1MAs/qkdjto5NcqjqY9t3kYNtcrWQ1eKOcpV3U//VnPrfJ5owRER2IH4kPheWDq+tcbNS5+zdrBMnNnLezqRLmcPO+pCBtkpksHUj++MF+x/UHa1jTJQWZfPygLEfIbNVsDEvwVrUDmNs9ENxpAu2eG2QYlhQAQDsA7QCAdgDaAQDtALQDANoBaAegHQDQDkA7AKAdgHYAQDsA7QCAdgDaAQDtALQD0A4AaAegHQDQDkA7AKAdgHYAQDsA7QC0AwDaAWgHALQDMwfas8G8akdoz4Z2z5ZwaM+Gdi/ANNqzVXzJSNBzZVqUOK5zoqOvy763rm6Spm4wI4Pst7Zn64rUFRxBiQ0OH6oVJSZdJb5kxGPu1qij3UEdnsLYpm4wY3O7h6P2GupyLhbg47bzBxXiDLpiidyCtNPeLw26y9QmT/IlI8L9Td1gDrTTB54u55g4K8S1CWfankgdefzOVLKZewbZ2l65Rk5O3KEcGp7ehnaPac9W52eJEL/5Obe3rBQMy/Ow6Y6JEzR1w8jZ0W4yve7JvLWzrNgiokIxJEgR2375itSBUtNM12xnRdKW32mXApZdtyC5xy0OwtwKnS/05KbuVMW8qRvMwyBLRLQZ8K/1Oy5NM3azuxQPLTWpZ1gQJELCO+MRfnM4t7trNTpJUzdkmpyZ/3DstJoTL+n64jBVyqZK2f2LPl0WUpUvk18hU8mmSodHt3c9R27qVhM0oqmvzXxuk8OTgEqzlXbf3J6tZVmzpGg+we7yxE3dYD4GWZlrw6aG07aq/mz1SKyyRde8NBzpHz30nbxRztLeH2nqjuw4Y1TDkmJmtHtQqplTL6Q1WsgrhuuLw/xkc7tB7Xan2DLuy1xftEbfK1WnWICXlKbumhx4aXxE8RDQng3mLO1wpwm0e26QYfMM7i4G0A5AOwCgHYB2AEA7AO0AgHYA2gEA7QC0A9AOAGgHoB0A0A5AOwCgHYB2AEA7AO0AtAMA2gFoBwC0A9AOAGgHoB0A0A5AOwDtAIB2ANoBAO0AtAMA2gFoBwC0A9AOzB//HwSEh8ZVvcu9AAAAAElFTkSuQmCC;" vertex="1" parent="1">
          <mxGeometry x="-126" y="-31" width="210" height="2362" as="geometry" />
        </mxCell>
        <mxCell id="EbQze-ob3yoMqO5apH35-4" value="" style="html=1;shadow=0;dashed=0;align=center;verticalAlign=middle;shape=mxgraph.arrows2.arrow;dy=0.67;dx=20;notch=0;fillColor=#d5e8d4;strokeColor=#82b366;" vertex="1" parent="1">
          <mxGeometry x="-25" y="43" width="234" height="8" as="geometry" />
        </mxCell>
        <mxCell id="EbQze-ob3yoMqO5apH35-6" value="用于创建spu，sku，选择关联的品牌" style="text;html=1;align=center;verticalAlign=middle;resizable=0;points=[];autosize=1;strokeColor=none;fillColor=none;" vertex="1" parent="1">
          <mxGeometry x="208" y="34" width="212" height="26" as="geometry" />
        </mxCell>
      </root>
    </mxGraphModel>
  </diagram>
</mxfile>
